<svg width="1920" height="830" viewBox="0 0 1920 830" fill="none" xmlns="http://www.w3.org/2000/svg">
<rect width="1920" height="830" fill="#FAFAFA"/>
<mask id="mask0_2_142" style="mask-type:alpha" maskUnits="userSpaceOnUse" x="0" y="0" width="1920" height="830">
<rect width="1920" height="830" fill="#D9D9D9"/>
</mask>
<g mask="url(#mask0_2_142)">
<path d="M577 -300.898C580.314 -197.781 619.87 -105.47 657.797 -21.0102C695.331 62.5788 736.709 142.896 770.443 229.928C794.226 291.284 816.938 360.676 815.95 432.6C815.144 491.304 798.153 545.812 776.311 594.342C729.193 699.017 659.317 780.877 619.559 892.716C575.966 1015.35 604.976 1158.12 628.86 1283.32C659.747 1445.22 704.952 1608.86 707.533 1778.58" stroke="#B7B7B7" stroke-miterlimit="10"/>
<path d="M613.441 -297.454C617.076 -194.324 655.9 -102.633 694.083 -18.2657C731.351 64.0831 772.509 143.08 805.932 228.926C829.798 290.229 852.611 360.161 851.476 432.112C850.542 490.882 833.698 545.825 811.709 594.342C765.296 696.747 696.015 775.784 656.953 885.433C613.203 1008.25 642.827 1151.31 665.723 1277.12C695.264 1439.42 737.127 1602.57 741.759 1771.65" stroke="#B7B7B7" stroke-miterlimit="10"/>
<path d="M631.871 -293.51C635.496 -193.415 672.05 -104.627 709.107 -22.5287C747.501 62.5381 790.527 143.567 824.884 232.315C847.907 291.784 869.622 359.342 869.045 428.931C868.56 487.859 851.789 543.449 829.8 592.058C783.808 693.724 714.252 770.861 675.666 879.876C632.851 1000.81 661.861 1142.19 683.521 1266.39C712.055 1429.99 752.426 1593.93 757.653 1763.72" stroke="#B7B7B7" stroke-miterlimit="10"/>
<path d="M650.418 -288.257C654.116 -187.898 690.743 -99.2815 728.149 -17.1835C765.425 64.6242 806.904 142.671 840.529 227.857C864.083 287.537 886.2 355.292 886.182 425.423C886.164 486.805 868.679 544.427 845.234 594.54C799.627 692.024 731.774 766.416 694.561 872.344C652.112 993.182 682.01 1138.03 702.836 1262.14C729.979 1423.83 767.385 1585.89 772.822 1753.16" stroke="#B7B7B7" stroke-miterlimit="10"/>
<path d="M669.074 -281.845C672.846 -180.549 710.022 -91.7481 748.105 -9.25423C785.656 72.0785 827.584 149.677 860.64 235.166C883.023 293.065 903.767 358.551 903.337 426.253C902.962 485.419 886.264 541.417 863.634 589.763C819.162 684.792 752.517 756.004 715.387 858.541C671.509 979.709 701.582 1126.86 721.52 1252.29C747.098 1413.24 781.903 1574.36 787.35 1740.2" stroke="#B7B7B7" stroke-miterlimit="10"/>
<path d="M687.832 -274.39C691.595 -173.212 728.826 -84.8335 767.155 -2.77506C803.526 75.0742 843.842 149.427 876.176 231.063C899.849 290.849 921.582 359.224 920.126 429.618C918.955 486.079 903.291 539.135 881.54 585.291C837.654 678.393 771.037 746.861 734.712 847.761C692.089 966.171 721.099 1111.86 739.317 1234.92C763.301 1396.94 796.029 1558.89 801.329 1725.19" stroke="#B7B7B7" stroke-miterlimit="10"/>
<path d="M706.668 -266.051C710.311 -167.736 745.693 -82.2868 783.071 -2.56388C819.552 75.2458 860.344 149.137 892.934 230.628C916.085 288.513 937.36 354.514 936.985 422.797C936.674 479.482 921.734 533.079 899.855 579.406C856.481 671.242 789.241 736.859 753.795 836.942C712.6 953.254 741.327 1100.47 757.924 1221.45C780.014 1382.55 809.884 1543.62 814.8 1708.37" stroke="#B7B7B7" stroke-miterlimit="10"/>
<path d="M725.582 -256.947C729.601 -147.575 772.911 -54.3011 815.543 32.5734C856.784 116.611 903.252 198.498 932.336 293.303C955.185 367.814 961.346 447.18 937.865 523.024C918.933 584.182 885.556 632.594 853.543 679.805C821.53 727.016 788.153 775.427 769.221 836.585C746.061 911.426 754.162 993.049 761.449 1071.73C780.573 1278.24 822.253 1481.05 827.865 1689.96" stroke="#B7B7B7" stroke-miterlimit="10"/>
<path d="M744.562 -247.209C748.536 -137.429 792.459 -44.6295 835.668 41.9811C875.92 122.654 920.978 201.48 949.11 292.986C971.3 365.148 977.946 442.945 955.71 516.901C937.502 577.452 904.198 624.505 872.231 670.251C840.263 715.984 806.959 763.037 788.751 823.601C766.094 898.943 775.321 983.76 782.068 1062.69C799.398 1265.5 835.86 1465.53 840.593 1670.35" stroke="#B7B7B7" stroke-miterlimit="10"/>
<path d="M763.574 -236.983C770.989 -28.1225 909.863 111.505 965.952 292.682C987.502 362.285 994.331 438.96 973.468 510.568C956.019 570.472 922.862 616.034 890.94 660.171C859.019 704.307 825.852 749.882 808.413 809.773C787.724 880.801 795.926 960.972 801.281 1035.3C816.057 1240.4 849.178 1443.06 853.032 1649.67" stroke="#B7B7B7" stroke-miterlimit="10"/>
<path d="M782.625 -226.402C789.765 -20.6816 927.421 114.605 982.632 292.391C1004.14 361.69 1010.97 438.748 989.415 509.881C972.287 566.394 940.521 608.684 909.68 649.759C877.813 692.194 844.83 736.172 828.196 795.39C808.138 866.813 817.11 950.337 821.834 1024.91C834.586 1226.2 862.507 1425.85 865.29 1628.34" stroke="#B7B7B7" stroke-miterlimit="10"/>
<path d="M801.695 -215.594C808.561 -12.6055 944.697 117.244 999.413 292.128C1020.88 360.741 1027.59 438.907 1005.43 509.117C988.703 562.107 958.081 601.269 928.421 639.138C898.778 677.007 868.138 716.196 851.413 769.16C829.442 838.775 837.608 922.338 841.288 996.255C851.404 1199.86 875.663 1402.11 877.412 1606.53" stroke="#B7B7B7" stroke-miterlimit="10"/>
<path d="M820.77 -204.708C827.342 -4.74112 962.133 120.121 1016.05 291.851C1036.8 357.931 1043.91 434.593 1023.14 502.599C1007.16 554.916 976.771 592.31 947.174 628.424C917.587 664.525 887.185 701.959 871.211 754.25C849.688 824.71 858.706 911.176 861.681 985.542C869.673 1185.3 888.851 1384.25 889.492 1584.56" stroke="#B7B7B7" stroke-miterlimit="10"/>
<path d="M839.848 -193.876C846.155 3.16142 979.481 122.983 1032.84 291.573C1053 355.251 1060.08 430.105 1040.82 496.172C1025.75 547.856 995.419 583.561 965.932 617.775C936.381 652.055 906.245 687.707 891.049 739.378C871.577 805.563 879.486 886.566 881.354 956.591C886.746 1158.7 902.034 1360.3 901.604 1562.69" stroke="#B7B7B7" stroke-miterlimit="10"/>
<path d="M858.91 -183.214C864.961 11.0001 996.904 125.663 1049.52 291.297C1069.54 354.315 1076.87 430.146 1056.8 495.275C1041.88 543.674 1013.14 576.041 984.683 607.286C955.133 639.732 925.307 673.577 910.898 724.706C892.196 791.103 900.371 876.697 901.524 946.55C904.801 1144.79 915.265 1342.82 913.828 1541.19" stroke="#B7B7B7" stroke-miterlimit="10"/>
<path d="M877.934 -172.883C883.756 18.5736 1014.27 128.381 1066.35 290.993C1086.23 353.075 1093.77 430.753 1072.89 494.549C1058.18 539.504 1030.67 568.915 1003.4 597.126C976.152 625.31 948.514 654.668 933.904 699.702C912.83 764.647 921.051 848.632 921.344 918.247C922.195 1118.95 928.631 1319.61 926.214 1520.34" stroke="#B7B7B7" stroke-miterlimit="10"/>
<path d="M896.918 -163.013C902.548 25.897 1031.72 130.743 1083.1 290.69C1102.38 350.7 1110.09 426.385 1090.65 488.652C1076.76 533.197 1049.32 560.999 1022.1 587.401C994.871 613.804 967.435 641.619 953.538 686.151C944.045 716.565 942.974 748.352 942.562 781.18C942.022 824.09 941.464 866.999 941.207 909.922C940.063 1106.74 942.068 1303.6 938.864 1500.39" stroke="#B7B7B7" stroke-miterlimit="10"/>
<path d="M915.852 -153.724C921.344 32.9033 1049.09 132.959 1100.07 290.334C1118.85 348.338 1126.48 422.532 1108.42 483.057C1095.21 527.392 1068.07 553.557 1040.75 578.271C1013.52 602.892 986.121 629.189 973.067 673.484C954.749 735.619 962.173 817.189 961.093 883.242C957.834 1082.71 955.765 1282.21 951.819 1481.65" stroke="#B7B7B7" stroke-miterlimit="10"/>
<path d="M934.711 -145.161C940.121 39.3686 1066.61 134.872 1116.96 289.977C1135.72 347.757 1143.51 422.836 1124.61 482.898C1111.49 524.594 1085.64 547.513 1059.36 569.852C1031.87 593.22 1005.1 617.419 992.494 661.925C984.96 688.539 984.227 716.525 983.797 744.802C983.12 789.084 981.728 833.379 980.584 877.647C975.558 1073.23 969.571 1268.77 965.177 1464.38" stroke="#B7B7B7" stroke-miterlimit="10"/>
<path d="M953.492 -137.455C958.774 43.6308 1081.85 135.137 1132.81 285.689C1152.24 343.1 1160.58 419.089 1142.17 479.442C1129.72 520.266 1103.92 541.946 1077.91 562.292C1051.84 582.691 1026.25 604.37 1013.65 645.142C1004.86 673.55 1004.54 703.872 1003.96 734.418C1003.18 775.85 1001.72 817.281 1000.31 858.673C993.616 1055.43 983.748 1251.97 979.015 1448.86" stroke="#B7B7B7" stroke-miterlimit="10"/>
<path d="M972.176 -130.752C977.614 52.2601 1103.79 139.042 1152.5 292.933C1170.07 348.417 1177.14 422.955 1158.51 479.982C1145.96 518.366 1121.56 537.485 1096.38 555.694C1069.98 574.787 1044.72 595.186 1032.65 636.354C1024.82 663.087 1024.45 691.574 1023.97 720.062C1023.27 762.246 1021.49 804.442 1019.75 846.56C1011.66 1042.89 998.174 1238.74 993.378 1435.33" stroke="#B7B7B7" stroke-miterlimit="10"/>
<path d="M990.762 -125.183C996.227 55.0443 1119.15 138.488 1168.46 288.553C1186.74 344.182 1194.63 419.498 1176.26 477.489C1164.21 515.503 1139.77 533.369 1114.81 550.218C1089.7 567.161 1065.67 584.974 1053.37 622.948C1044.12 651.462 1044.16 682.813 1043.56 713.596C1042.74 756.321 1040.91 799.033 1038.87 841.665C1029.56 1035.91 1012.95 1229.41 1008.41 1424.1" stroke="#B7B7B7" stroke-miterlimit="10"/>
<path d="M1009.22 -120.882C1014.8 56.9439 1134.46 137.577 1184.66 284.066C1204.08 340.724 1213.2 421.437 1192.45 480.325C1180.12 515.292 1156.96 531.231 1133.14 545.983C1107.94 561.592 1084.1 578.627 1072.29 616.667C1063.14 646.171 1063.39 677.759 1062.81 709.374C1062.08 749.196 1060.33 789.004 1058.27 828.734C1048.15 1024.45 1028.14 1219.08 1024.09 1415.43" stroke="#B7B7B7" stroke-miterlimit="10"/>
<path d="M1027.55 -117.979C1033.34 59.5311 1152.12 137.473 1202.24 283.394C1221.71 340.079 1230.81 421.2 1209.98 480.102C1197.8 514.527 1175.05 529.464 1151.39 543.133C1126.33 557.621 1102.92 573.64 1091.27 611.153C1082.1 640.669 1082.24 672.548 1081.77 704.202C1081.17 744.037 1079.44 783.859 1077.27 823.576C1066.62 1019.12 1043.74 1213.23 1040.55 1409.57" stroke="#B7B7B7" stroke-miterlimit="10"/>
<path d="M1045.73 -116.606C1051.93 62.8037 1172.13 138.067 1221.27 286.521C1239.51 341.61 1247.2 416.754 1229.58 474.481C1217.97 512.562 1194.92 527.775 1169.52 541.814C1144.24 555.788 1120.87 571.133 1109.46 609.147C1101.24 636.527 1100.62 666.598 1100.34 695.93C1099.96 736.002 1098.52 776.022 1096.36 815.989C1085.68 1013.25 1059.82 1208.65 1057.85 1406.85" stroke="#B7B7B7" stroke-miterlimit="10"/>
<path d="M1063.76 -116.923C1069.72 60.6263 1188.01 137.117 1238.12 282.932C1257.69 339.881 1266.68 421.095 1245.72 480.221C1233.6 514.369 1211.17 528.936 1187.6 542.17C1162.63 556.196 1139.55 571.859 1127.95 609.094C1118.75 638.637 1118.67 670.793 1118.34 702.527C1117.92 742.441 1116.32 782.329 1114.11 822.124C1103.29 1017.46 1078 1211.04 1076.02 1407.34" stroke="#B7B7B7" stroke-miterlimit="10"/>
<path d="M1081.63 -118.864C1087.32 58.712 1206.41 137.577 1256.55 283.657C1276.05 340.46 1284.95 420.936 1264.14 479.929C1251.98 514.434 1229.32 529.991 1205.75 544.32C1180.78 559.494 1157.47 576.159 1145.81 613.711C1136.67 643.149 1136.63 674.922 1136.23 706.524C1135.71 746.464 1134.07 786.392 1131.9 826.214C1121.26 1021.23 1097.4 1214.66 1094.83 1410.56" stroke="#B7B7B7" stroke-miterlimit="10"/>
<path d="M1099.36 -122.307C1104.89 55.7305 1224.89 137.485 1275.15 284.291C1294.67 341.305 1303.41 421.134 1282.75 480.365C1270.5 515.464 1247.62 532.366 1223.97 548.121C1198.95 564.773 1175.39 582.797 1163.64 620.916C1154.55 650.407 1154.5 681.929 1154.05 713.544C1153.48 753.484 1151.83 793.386 1149.74 833.207C1139.47 1027.76 1117.19 1220.88 1114.24 1416.21" stroke="#B7B7B7" stroke-miterlimit="10"/>
<path d="M1116.98 -127.084C1122.43 53.5134 1245.72 138.237 1295.13 288.777C1313.55 344.907 1320.98 419.247 1302.76 477.752C1290.87 515.925 1266.93 535.176 1242.26 553.438C1217.47 571.805 1193.92 590.99 1181.77 629.123C1172.66 657.703 1172.35 688.988 1171.85 719.824C1171.14 762.628 1169.54 805.379 1167.35 848.078C1157.51 1040.27 1137.31 1231.29 1134.19 1424.16" stroke="#B7B7B7" stroke-miterlimit="10"/>
<path d="M1134.46 -133.087C1139.91 50.4529 1266.49 138.647 1315.33 293.145C1333.08 349.302 1339.55 422.757 1321.23 480.537C1308.97 519.185 1285.31 540.072 1260.6 560.102C1234.68 581.108 1210.18 603.341 1198.37 644.694C1190.73 671.492 1189.96 700.033 1189.59 728.56C1189.04 770.757 1187.46 812.927 1185.49 855.032C1176.47 1048.22 1157.77 1240.37 1154.59 1434.1" stroke="#B7B7B7" stroke-miterlimit="10"/>
<path d="M1151.86 -140.173C1157.18 41.5456 1280.69 134.569 1331.79 285.847C1351.47 344.115 1359.08 418.904 1341.13 480.233C1329.09 521.401 1304.35 545.31 1279 567.965C1253.6 590.673 1229.05 614.582 1216.87 655.697C1208.38 684.343 1207.67 714.718 1207.18 745.409C1206.52 786.722 1205.21 827.995 1203.44 869.242C1195.22 1061.58 1178.5 1253.09 1175.43 1445.87" stroke="#B7B7B7" stroke-miterlimit="10"/>
<path d="M1169.16 -148.209C1174.63 37.0723 1301.57 134.199 1352.08 290.148C1371.13 348.971 1378.03 422.743 1359.86 484.033C1347.36 526.23 1322.82 551.788 1297.44 576.885C1270.88 603.129 1245.5 630.073 1233.46 674.988C1226.26 701.826 1225.15 729.997 1224.82 758.419C1224.28 802.384 1222.92 846.335 1221.22 890.248C1213.86 1079.99 1199.48 1269.11 1196.65 1459.19" stroke="#B7B7B7" stroke-miterlimit="10"/>
<path d="M1186.38 -157.049C1191.96 30.436 1320.17 132.181 1371.33 290.492C1390.44 349.618 1397.09 422.533 1379.96 484.429C1367.51 529.384 1342.07 558.69 1315.92 586.702C1289.85 614.622 1264.19 644.06 1251.88 688.975C1234.51 752.402 1241.7 831.307 1239.54 898.231C1233.35 1090.19 1220.72 1281.65 1218.19 1473.85" stroke="#B7B7B7" stroke-miterlimit="10"/>
<path d="M1203.54 -166.576C1209.28 21.6478 1336.78 128.42 1389.32 286.942C1410.35 350.409 1417.42 428.457 1397.35 494.51C1384.13 538 1359.39 568.057 1334.43 597.271C1308.31 627.856 1282.79 659.3 1269.99 705.56C1251.76 771.363 1259.28 852.524 1257.39 922.047C1252.25 1111.3 1242.09 1300.24 1239.99 1489.65" stroke="#B7B7B7" stroke-miterlimit="10"/>
<path d="M1220.65 -176.63C1226.69 17.5706 1359.68 128.842 1411.13 295.084C1430.41 357.363 1435.72 431.109 1417.53 495.341C1404.25 542.235 1378.78 575.737 1352.98 608.46C1326.12 642.502 1299.68 677.627 1286.84 727.134C1270.45 790.377 1276.95 866.722 1275.6 932.973C1271.71 1124.14 1263.67 1315.11 1262.01 1506.37" stroke="#B7B7B7" stroke-miterlimit="10"/>
<path d="M1237.72 -187.107C1243.9 6.53939 1374.26 123.142 1427.99 287.536C1449.28 352.639 1455.82 427.915 1437.83 496.357C1424.61 546.616 1398.03 583.904 1371.53 620.084C1345 656.291 1318.56 693.592 1305.23 743.812C1287.3 811.382 1294.47 892.042 1293.42 963.07C1290.69 1149.97 1285.29 1336.79 1284.16 1523.74" stroke="#B7B7B7" stroke-miterlimit="10"/>
<path d="M1254.77 -197.834C1261.31 2.04029 1397.04 123.419 1449.87 295.664C1469.9 361.018 1474.79 435.7 1456.56 503.152C1442.74 554.269 1416.37 593.655 1390.1 632.026C1363.84 670.383 1337.45 709.796 1323.63 760.899C1305.53 827.876 1312.06 905.422 1311.52 975.737C1310.08 1164.36 1307.02 1352.94 1306.43 1541.57" stroke="#B7B7B7" stroke-miterlimit="10"/>
<path d="M1271.8 -208.707C1278.51 -9.24134 1411.79 117.481 1466.79 288.077C1489.39 358.154 1495.45 437.139 1475.3 510.066C1460.91 562.159 1434.74 603.551 1408.69 644.086C1382.66 684.594 1356.38 725.973 1342.08 778.105C1322.66 848.935 1329.6 931.64 1329.51 1006.19C1329.31 1190.65 1328.81 1375.13 1328.79 1559.59" stroke="#B7B7B7" stroke-miterlimit="10"/>
<path d="M1288.83 -219.579C1295.93 -15.4292 1432.53 116.123 1487.38 292.313C1508.96 361.612 1514.3 437.574 1495.98 509.631C1481.64 566.052 1454.33 611.627 1427.25 656.173C1400.17 700.705 1372.86 746.32 1358.52 802.714C1340.16 874.929 1347.11 956.803 1347.55 1032.16C1348.63 1214 1350.57 1395.82 1351.1 1577.67" stroke="#B7B7B7" stroke-miterlimit="10"/>
<path d="M1305.89 -230.32C1313.27 -23.1481 1451.19 113.286 1506.84 292.59C1529.18 364.581 1534 441.929 1514.71 516.611C1499.89 574.009 1472.66 621.576 1445.83 668.101C1419 714.626 1391.76 762.206 1376.95 819.59C1358.51 891.04 1364.58 970.46 1365.52 1045.21C1367.83 1228.64 1372.33 1412.01 1373.38 1595.48" stroke="#B7B7B7" stroke-miterlimit="10"/>
<path d="M1322.95 -240.782C1330.58 -30.972 1470.01 110.766 1526.12 292.881C1548.44 365.307 1553.42 441.877 1534.92 517.258C1519.93 578.364 1491.99 629.52 1464.39 679.739C1435.85 731.648 1406.87 784.757 1392.3 848.501C1375.84 920.557 1382.19 999.726 1383.67 1074.32C1387.24 1253.86 1394.02 1433.24 1395.54 1612.88" stroke="#B7B7B7" stroke-miterlimit="10"/>
<path d="M1340.07 -250.851C1344.22 -138.682 1389.69 -43.9435 1433.77 44.5407C1473.53 124.382 1517.7 202.72 1545.51 293.183C1567.81 365.755 1572.8 442.034 1555.15 517.666C1540.07 582.334 1511.21 637.172 1482.93 690.901C1454.66 744.63 1425.8 799.468 1410.72 864.135C1394.02 935.704 1399.6 1012.25 1401.52 1086.39C1406.18 1267.5 1415.6 1448.3 1417.57 1629.55" stroke="#B7B7B7" stroke-miterlimit="10"/>
<path d="M1357.23 -260.364C1361.41 -148.683 1406.22 -53.496 1449.69 35.173C1490.45 118.34 1536.03 199.686 1564.69 293.501C1587.63 368.592 1592.33 446.006 1573.75 524.172C1558.17 589.684 1529.48 646.092 1501.44 701.484C1473.4 756.876 1444.71 813.283 1429.13 878.795C1411.17 954.283 1417.14 1035 1419.72 1113.27C1425.58 1290.7 1437.05 1467.68 1439.35 1645.36" stroke="#B7B7B7" stroke-miterlimit="10"/>
<path d="M1374.45 -269.205C1378.7 -157.182 1423.48 -61.0706 1466.72 28.3241C1508.69 115.106 1556 200.015 1585.15 297.92C1606.95 371.138 1611.19 446.243 1594.16 522.258C1578.57 591.861 1548.82 652.108 1519.93 711.313C1491.04 770.531 1461.28 830.765 1445.69 900.381C1429.73 971.633 1434.57 1045.88 1437.31 1119.45C1444.01 1299.79 1458.28 1479.4 1460.9 1660.05" stroke="#B7B7B7" stroke-miterlimit="10"/>
<path d="M1391.75 -277.24C1395.97 -165.942 1440.09 -69.7389 1482.67 19.5635C1524.48 107.256 1571.47 192.626 1601.8 290.321C1625.93 368.025 1631.2 446.771 1612.58 528.117C1596.52 598.287 1566.99 659.735 1538.36 720.234C1509.74 780.732 1480.2 842.18 1464.15 912.35C1446.98 987.349 1452.16 1065.7 1455.55 1143.19C1463.3 1320.08 1479.36 1496.03 1482.11 1673.37" stroke="#B7B7B7" stroke-miterlimit="10"/>
<path d="M1409.14 -284.325C1412.95 -183.847 1449.47 -95.7191 1487.07 -13.6606C1524.28 67.5137 1565.76 144.888 1599.1 229.651C1622.5 289.186 1644.03 356.176 1644.04 426.016C1644.06 485.459 1630.79 543.437 1612.51 596.084C1575.47 702.79 1517.27 792.607 1487.19 904.605C1456.62 1018.41 1472.08 1148.68 1479.88 1267.04C1489.06 1406.27 1500.73 1545.17 1502.95 1685.13" stroke="#B7B7B7" stroke-miterlimit="10"/>
<path d="M1426.63 -290.33C1430.4 -190.023 1466.84 -101.645 1504.11 -19.4676C1542.48 65.1374 1585.52 145.678 1619.67 234.15C1642.71 293.83 1663.23 360.226 1662.92 429.789C1662.65 489.284 1649.08 547.196 1630.94 600.028C1593.69 708.568 1535.96 800.972 1505.41 914.526C1474.85 1028.12 1489.52 1155.94 1498 1274C1508.07 1414.21 1521.19 1553.97 1523.36 1695.08" stroke="#B7B7B7" stroke-miterlimit="10"/>
<path d="M1444.23 -295.119C1448.04 -191.619 1486.82 -100.034 1525.28 -15.4293C1562.5 66.4576 1603.65 144.98 1636.88 230.522C1660.81 292.115 1682.67 361.177 1681.77 433.247C1681.03 492.663 1667.23 550.298 1649.22 603.116C1611.78 713.003 1554.49 807.609 1523.6 922.338C1492.54 1037.7 1507.24 1166.45 1516.55 1286.25C1527.34 1424.98 1541.34 1563.2 1543.3 1702.99" stroke="#B7B7B7" stroke-miterlimit="10"/>
<path d="M1461.97 -298.549C1465.69 -194.772 1504.87 -102.633 1543.26 -17.7111C1580.67 65.0203 1621.97 144.427 1655.4 230.773C1679.3 292.499 1701.28 361.613 1700.38 433.788C1699.64 493.389 1685.68 551.183 1667.76 604.252C1630.04 716.012 1572.66 812.862 1541.46 929.385C1510.52 1044.88 1524.89 1173.19 1534.75 1292.98C1546.13 1431.35 1561.07 1569.09 1562.71 1708.68" stroke="#B7B7B7" stroke-miterlimit="10"/>
<path d="M1479.84 -300.502C1483.36 -197.464 1522.33 -105.787 1560.27 -21.327C1598.73 64.2677 1641.49 146.287 1675.53 235.879C1698.01 295.058 1718.8 360.662 1718.79 429.486C1718.79 490.961 1704.21 550.773 1685.8 605.465C1648.02 717.727 1591.26 815.645 1559.75 932.472C1528.31 1049.03 1542.59 1178.83 1553.03 1299.75C1564.87 1436.91 1580.35 1573.37 1581.54 1711.9" stroke="#B7B7B7" stroke-miterlimit="10"/>
<path d="M1497.86 -300.898C1501.63 -198.018 1540.62 -106.315 1578.38 -21.8019C1616.74 64.083 1659.37 146.458 1693.38 236.262C1715.7 295.216 1736.79 360.94 1736.79 429.513C1736.79 490.684 1721.92 550.417 1703.69 604.859C1665.9 717.74 1609.48 816.701 1577.86 934.029C1546.46 1050.51 1560.37 1179.77 1570.97 1300.59C1582.99 1437.69 1598.81 1574 1599.69 1712.54" stroke="#B7B7B7" stroke-miterlimit="10"/>
<path d="M1515.93 -300.898C1520.73 -198.295 1558.87 -106.79 1596.25 -21.8679C1633.97 63.8455 1675.8 146.181 1709.3 235.629C1731.26 294.253 1753.05 360.874 1753.08 428.985C1753.1 489.787 1737.63 550.127 1719.73 604.291C1682.45 717.107 1627.23 816.675 1595.88 933.726C1564.52 1050.8 1578.11 1178.82 1588.57 1300.24C1600.4 1437.36 1615.87 1573.77 1617 1712.26" stroke="#B7B7B7" stroke-miterlimit="10"/>
<path d="M1534 -300.898C1539.5 -198.744 1576.56 -107.436 1613.34 -22.145C1650.18 63.3177 1691 145.574 1723.77 234.586C1745.27 293.013 1767.33 360.227 1767.36 427.89C1767.4 488.388 1751.65 549.163 1734.16 603.222C1697.67 715.998 1643.87 816.252 1613.07 933.013C1582.05 1050.63 1595.27 1177.67 1605.53 1299.55C1617.08 1436.74 1632.13 1573.24 1633.44 1711.72" stroke="#B7B7B7" stroke-miterlimit="10"/>
<path d="M1552.07 -300.886C1557.98 -199.339 1593.77 -108.229 1629.72 -22.6344C1665.49 62.5248 1705.11 144.636 1736.91 233.147C1757.89 291.507 1779.79 359.025 1779.85 426.252C1779.89 486.487 1764.18 547.552 1747.16 601.651C1711.68 714.4 1659.53 815.407 1629.55 931.89C1599.15 1050.01 1611.95 1176.28 1621.93 1298.52C1633.15 1435.79 1647.72 1572.42 1649.13 1710.88" stroke="#B7B7B7" stroke-miterlimit="10"/>
<path d="M1570.12 -300.886C1576.25 -199.286 1611.07 -107.648 1646.32 -21.2093C1680 61.3769 1717.04 141.324 1747.27 226.76C1768.78 287.575 1791.57 358.801 1790.53 428.641C1789.66 486.988 1775.16 545.679 1759.16 598.55C1724.78 712.184 1673.91 814.694 1644.97 931.877C1616.03 1049.07 1628.11 1173.32 1637.59 1294.3C1648.43 1432.63 1662.65 1570.36 1664.12 1709.8" stroke="#B7B7B7" stroke-miterlimit="10"/>
<path d="M1588.18 -300.886C1594.24 -200.118 1627.42 -108.73 1661.47 -22.0538C1693.74 60.1233 1729.29 139.833 1758.21 224.689C1778.99 285.662 1800.91 356.716 1799.9 426.107C1799.05 484.31 1785.07 543.026 1769.66 596.162C1736.71 709.809 1687.9 813.19 1660.19 930.109C1632.32 1047.7 1643.92 1171.61 1653.01 1292.73C1663.4 1431.17 1677 1569.07 1678.47 1708.54" stroke="#B7B7B7" stroke-miterlimit="10"/>
<path d="M1606.23 -300.886C1617.38 -109.007 1713.02 53.1698 1768.2 222.327C1788.17 283.551 1808.92 354.209 1807.96 423.178C1807.16 481.275 1793.86 539.939 1779.12 593.417C1747.78 707.091 1701.19 811.369 1674.87 928.038C1648.26 1046.01 1659.34 1169.73 1667.99 1290.91C1677.89 1429.48 1690.83 1567.55 1692.25 1707.05" stroke="#B7B7B7" stroke-miterlimit="10"/>
<path d="M1624.29 -300.886C1634.59 -111.158 1725 50.7419 1777.38 219.728C1796.46 281.281 1815.82 351.346 1814.93 419.932C1814.17 477.95 1801.71 536.508 1787.7 590.369C1758.12 704.095 1713.91 809.284 1689.13 925.715C1663.94 1044.05 1674.48 1167.67 1682.65 1288.88C1692.01 1427.58 1704.26 1565.85 1705.59 1705.38" stroke="#B7B7B7" stroke-miterlimit="10"/>
<path d="M1642.34 -300.898C1651.56 -113.466 1736.56 48.1962 1785.9 216.931C1804.01 278.854 1821.79 348.206 1820.97 416.41C1820.28 474.375 1808.76 532.788 1795.54 587.085C1767.84 700.877 1726.13 807.002 1703.01 923.209C1679.4 1041.87 1689.36 1165.5 1697.02 1286.69C1705.8 1425.53 1717.32 1564 1718.51 1703.59" stroke="#B7B7B7" stroke-miterlimit="10"/>
<path d="M1660.39 -300.898C1668.33 -115.854 1747.77 45.6104 1793.85 213.976C1810.91 276.308 1826.97 344.829 1826.23 412.663C1825.61 470.602 1815.13 528.83 1802.75 583.589C1777.02 697.46 1737.94 804.536 1716.56 920.531C1694.64 1039.51 1704 1163.21 1711.13 1284.35C1719.32 1423.36 1730.07 1562.02 1731.12 1701.68" stroke="#B7B7B7" stroke-miterlimit="10"/>
<path d="M1678.43 -300.898C1684.96 -118.322 1758.73 42.9846 1801.37 210.902C1817.3 273.643 1831.54 341.279 1830.9 408.758C1830.35 466.696 1820.96 524.713 1809.48 579.947C1785.79 693.91 1749.43 801.91 1729.86 917.734C1709.71 1037.01 1718.47 1160.82 1725.04 1281.92C1732.6 1421.09 1742.57 1559.96 1743.44 1699.68" stroke="#B7B7B7" stroke-miterlimit="10"/>
<path d="M1696.48 -300.898C1701.56 -119.589 1770.46 42.6676 1809.43 211.324C1823.58 272.574 1835.36 337.136 1835.14 402.147C1834.94 460.573 1826.71 518.894 1816.13 575.064C1794.46 690.057 1760.53 799.759 1742.81 916.374C1724.86 1034.49 1732.79 1156.9 1738.69 1276.47C1745.62 1416.8 1754.93 1556.85 1755.61 1697.64" stroke="#B7B7B7" stroke-miterlimit="10"/>
<path d="M1714.54 -300.898C1718.07 -122.082 1781.11 40.0289 1816.41 208.078C1842.24 331.053 1843.48 446.692 1822.34 571.225C1802.79 686.323 1771.74 796.948 1755.9 913.419C1739.78 1031.84 1747.09 1154.33 1752.43 1273.91C1758.71 1414.41 1767.21 1554.67 1767.69 1695.54" stroke="#B7B7B7" stroke-miterlimit="10"/>
<path d="M1732.57 -300.912C1734.59 -124.563 1791.73 37.4293 1823.32 204.818C1846.34 326.765 1847.11 444.159 1828.48 567.372C1811.06 682.602 1782.91 794.085 1768.94 910.45C1754.67 1029.18 1761.35 1151.7 1766.13 1271.33C1771.76 1411.98 1779.44 1552.46 1779.71 1693.43" stroke="#B7B7B7" stroke-miterlimit="10"/>
<path d="M1750.62 -300.912C1751.17 -126.965 1802.45 34.9221 1830.33 201.586C1850.56 322.569 1850.91 441.559 1834.71 563.558C1819.39 678.92 1794.16 791.235 1782.03 907.52C1769.59 1026.55 1775.65 1149.08 1779.88 1268.78C1784.86 1409.6 1791.72 1550.27 1791.8 1691.34" stroke="#B7B7B7" stroke-miterlimit="10"/>
<path d="M1768.67 -300.912C1767.87 -129.247 1813.35 32.5341 1837.54 198.419C1855.07 318.571 1855.07 438.894 1841.19 559.825C1827.93 675.332 1805.6 788.411 1795.24 904.657C1784.6 1023.99 1790.02 1146.47 1793.72 1266.3C1798.07 1407.27 1804.12 1548.14 1804.01 1689.31" stroke="#B7B7B7" stroke-miterlimit="10"/>
<path d="M1786.71 -300.912C1784.7 -131.411 1824.47 30.2646 1845.08 195.345C1860 314.837 1859.7 436.137 1848.01 556.209C1836.75 671.875 1817.27 785.654 1808.63 901.887C1799.73 1021.54 1804.53 1143.89 1807.7 1263.89C1811.42 1405.02 1816.69 1546.06 1816.4 1687.33" stroke="#B7B7B7" stroke-miterlimit="10"/>
<path d="M1804.77 -300.912C1801.74 -133.391 1835.94 28.1399 1853.1 192.415C1865.54 311.445 1865.01 433.326 1855.36 552.765C1846.01 668.589 1829.31 783.014 1822.29 899.26C1815.04 1019.21 1819.22 1141.41 1821.89 1261.59C1825.02 1402.87 1829.52 1544.08 1829.08 1685.46" stroke="#B7B7B7" stroke-miterlimit="10"/>
<path d="M1822.82 -300.912C1819.04 -136.65 1847.3 23.3373 1861.33 185.317C1871.71 305.178 1871.23 428.18 1863.43 548.371C1855.84 665.277 1841.66 781.154 1836.18 898.363C1824 1159.03 1843.13 1422.7 1842.11 1683.72" stroke="#B7B7B7" stroke-miterlimit="10"/>
<path d="M1840.87 -300.912C1836.55 -138.193 1859.74 21.5692 1870.73 182.796C1878.9 302.592 1878.26 425.409 1872.19 545.416C1866.26 662.48 1854.68 778.858 1850.57 896.133C1841.42 1157.47 1856.73 1420.56 1855.54 1682.12" stroke="#B7B7B7" stroke-miterlimit="10"/>
<path d="M1858.93 -300.912C1854.37 -139.513 1872.76 20.0119 1880.99 180.513C1893.25 419.669 1871.33 655.605 1865.44 894.141C1858.98 1155.98 1870.75 1418.73 1869.49 1680.68" stroke="#B7B7B7" stroke-miterlimit="10"/>
<path d="M1876.99 -300.912C1872.51 -140.595 1886.43 18.6661 1892.21 178.508C1900.83 417.096 1884.63 654.141 1880.85 892.426C1876.68 1154.59 1885.25 1417.18 1884.01 1679.43" stroke="#B7B7B7" stroke-miterlimit="10"/>
<path d="M1895.05 -300.912C1891.03 -141.426 1900.83 17.5445 1904.52 176.832C1910.04 415.143 1898.96 652.861 1896.85 891.053C1894.53 1153.44 1900.28 1415.99 1899.16 1678.43" stroke="#B7B7B7" stroke-miterlimit="10"/>
<path d="M1913.11 -300.912C1909.95 -142.02 1916.05 16.6739 1918.06 175.5C1921.07 413.732 1914.41 651.819 1913.53 890.037C1912.56 1152.56 1915.92 1415.12 1915.04 1677.66" stroke="#B7B7B7" stroke-miterlimit="10"/>
<path d="M577 -300.898C580.314 -197.781 619.87 -105.47 657.797 -21.0102C695.331 62.5788 736.709 142.896 770.443 229.928C794.226 291.284 816.938 360.676 815.95 432.6C815.144 491.304 798.153 545.812 776.311 594.342C729.193 699.017 659.317 780.877 619.559 892.716C575.966 1015.35 604.976 1158.12 628.86 1283.32C659.747 1445.22 704.952 1608.86 707.533 1778.58" stroke="#B7B7B7" stroke-miterlimit="10"/>
<path d="M613.441 -297.454C617.076 -194.324 655.9 -102.633 694.083 -18.2657C731.351 64.0831 772.509 143.08 805.932 228.926C829.798 290.229 852.611 360.161 851.476 432.112C850.542 490.882 833.698 545.825 811.709 594.342C765.296 696.747 696.015 775.784 656.953 885.433C613.203 1008.25 642.827 1151.31 665.723 1277.12C695.264 1439.42 737.127 1602.57 741.759 1771.65" stroke="#B7B7B7" stroke-miterlimit="10"/>
<path d="M631.871 -293.51C635.496 -193.415 672.05 -104.627 709.107 -22.5287C747.501 62.5381 790.527 143.567 824.884 232.315C847.907 291.784 869.622 359.342 869.045 428.931C868.56 487.859 851.789 543.449 829.8 592.058C783.808 693.724 714.252 770.861 675.666 879.876C632.851 1000.81 661.861 1142.19 683.521 1266.39C712.055 1429.99 752.426 1593.93 757.653 1763.72" stroke="#B7B7B7" stroke-miterlimit="10"/>
<path d="M650.418 -288.257C654.116 -187.898 690.743 -99.2815 728.149 -17.1835C765.425 64.6242 806.904 142.671 840.529 227.857C864.083 287.537 886.2 355.292 886.182 425.423C886.164 486.805 868.679 544.427 845.234 594.54C799.627 692.024 731.774 766.416 694.561 872.344C652.112 993.182 682.01 1138.03 702.836 1262.14C729.979 1423.83 767.385 1585.89 772.822 1753.16" stroke="#B7B7B7" stroke-miterlimit="10"/>
<path d="M669.074 -281.845C672.846 -180.549 710.022 -91.7481 748.105 -9.25423C785.656 72.0785 827.584 149.677 860.64 235.166C883.023 293.065 903.767 358.551 903.337 426.253C902.962 485.419 886.264 541.417 863.634 589.763C819.162 684.792 752.517 756.004 715.387 858.541C671.509 979.709 701.582 1126.86 721.52 1252.29C747.098 1413.24 781.903 1574.36 787.35 1740.2" stroke="#B7B7B7" stroke-miterlimit="10"/>
<path d="M687.832 -274.39C691.595 -173.212 728.826 -84.8335 767.155 -2.77506C803.526 75.0742 843.842 149.427 876.176 231.063C899.849 290.849 921.582 359.224 920.126 429.618C918.955 486.079 903.291 539.135 881.54 585.291C837.654 678.393 771.037 746.861 734.712 847.761C692.089 966.171 721.099 1111.86 739.317 1234.92C763.301 1396.94 796.029 1558.89 801.329 1725.19" stroke="#B7B7B7" stroke-miterlimit="10"/>
<path d="M706.668 -266.051C710.311 -167.736 745.693 -82.2868 783.071 -2.56388C819.552 75.2458 860.344 149.137 892.934 230.628C916.085 288.513 937.36 354.514 936.985 422.797C936.674 479.482 921.734 533.079 899.855 579.406C856.481 671.242 789.241 736.859 753.795 836.942C712.6 953.254 741.327 1100.47 757.924 1221.45C780.014 1382.55 809.884 1543.62 814.8 1708.37" stroke="#B7B7B7" stroke-miterlimit="10"/>
<path d="M725.582 -256.947C729.601 -147.575 772.911 -54.3011 815.543 32.5734C856.784 116.611 903.252 198.498 932.336 293.303C955.185 367.814 961.346 447.18 937.865 523.024C918.933 584.182 885.556 632.594 853.543 679.805C821.53 727.016 788.153 775.427 769.221 836.585C746.061 911.426 754.162 993.049 761.449 1071.73C780.573 1278.24 822.253 1481.05 827.865 1689.96" stroke="#B7B7B7" stroke-miterlimit="10"/>
<path d="M744.562 -247.209C748.536 -137.429 792.459 -44.6295 835.668 41.9811C875.92 122.654 920.978 201.48 949.11 292.986C971.3 365.148 977.946 442.945 955.71 516.901C937.502 577.452 904.198 624.505 872.231 670.251C840.263 715.984 806.959 763.037 788.751 823.601C766.094 898.943 775.321 983.76 782.068 1062.69C799.398 1265.5 835.86 1465.53 840.593 1670.35" stroke="#B7B7B7" stroke-miterlimit="10"/>
<path d="M763.574 -236.983C770.989 -28.1225 909.863 111.505 965.952 292.682C987.502 362.285 994.331 438.96 973.468 510.568C956.019 570.472 922.862 616.034 890.94 660.171C859.019 704.307 825.852 749.882 808.413 809.773C787.724 880.801 795.926 960.972 801.281 1035.3C816.057 1240.4 849.178 1443.06 853.032 1649.67" stroke="#B7B7B7" stroke-miterlimit="10"/>
<path d="M782.625 -226.402C789.765 -20.6816 927.421 114.605 982.632 292.391C1004.14 361.69 1010.97 438.748 989.415 509.881C972.287 566.394 940.521 608.684 909.68 649.759C877.813 692.194 844.83 736.172 828.196 795.39C808.138 866.813 817.11 950.337 821.834 1024.91C834.586 1226.2 862.507 1425.85 865.29 1628.34" stroke="#B7B7B7" stroke-miterlimit="10"/>
<path d="M801.695 -215.594C808.561 -12.6055 944.697 117.244 999.413 292.128C1020.88 360.741 1027.59 438.907 1005.43 509.117C988.703 562.107 958.081 601.269 928.421 639.138C898.778 677.007 868.138 716.196 851.413 769.16C829.442 838.775 837.608 922.338 841.288 996.255C851.404 1199.86 875.663 1402.11 877.412 1606.53" stroke="#B7B7B7" stroke-miterlimit="10"/>
<path d="M820.77 -204.708C827.342 -4.74112 962.133 120.121 1016.05 291.851C1036.8 357.931 1043.91 434.593 1023.14 502.599C1007.16 554.916 976.771 592.31 947.174 628.424C917.587 664.525 887.185 701.959 871.211 754.25C849.688 824.71 858.706 911.176 861.681 985.542C869.673 1185.3 888.851 1384.25 889.492 1584.56" stroke="#B7B7B7" stroke-miterlimit="10"/>
<path d="M839.848 -193.876C846.155 3.16142 979.481 122.983 1032.84 291.573C1053 355.251 1060.08 430.105 1040.82 496.172C1025.75 547.856 995.419 583.561 965.932 617.775C936.381 652.055 906.245 687.707 891.049 739.378C871.577 805.563 879.486 886.566 881.354 956.591C886.746 1158.7 902.034 1360.3 901.604 1562.69" stroke="#B7B7B7" stroke-miterlimit="10"/>
<path d="M858.91 -183.214C864.961 11.0001 996.904 125.663 1049.52 291.297C1069.54 354.315 1076.87 430.146 1056.8 495.275C1041.88 543.674 1013.14 576.041 984.683 607.286C955.133 639.732 925.307 673.577 910.898 724.706C892.196 791.103 900.371 876.697 901.524 946.55C904.801 1144.79 915.265 1342.82 913.828 1541.19" stroke="#B7B7B7" stroke-miterlimit="10"/>
<path d="M877.934 -172.883C883.756 18.5736 1014.27 128.381 1066.35 290.993C1086.23 353.075 1093.77 430.753 1072.89 494.549C1058.18 539.504 1030.67 568.915 1003.4 597.126C976.152 625.31 948.514 654.668 933.904 699.702C912.83 764.647 921.051 848.632 921.344 918.247C922.195 1118.95 928.631 1319.61 926.214 1520.34" stroke="#B7B7B7" stroke-miterlimit="10"/>
<path d="M896.918 -163.013C902.548 25.897 1031.72 130.743 1083.1 290.69C1102.38 350.7 1110.09 426.385 1090.65 488.652C1076.76 533.197 1049.32 560.999 1022.1 587.401C994.871 613.804 967.435 641.619 953.538 686.151C944.045 716.565 942.974 748.352 942.562 781.18C942.022 824.09 941.464 866.999 941.207 909.922C940.063 1106.74 942.068 1303.6 938.864 1500.39" stroke="#B7B7B7" stroke-miterlimit="10"/>
<path d="M915.852 -153.724C921.344 32.9033 1049.09 132.959 1100.07 290.334C1118.85 348.338 1126.48 422.532 1108.42 483.057C1095.21 527.392 1068.07 553.557 1040.75 578.271C1013.52 602.892 986.121 629.189 973.067 673.484C954.749 735.619 962.173 817.189 961.093 883.242C957.834 1082.71 955.765 1282.21 951.819 1481.65" stroke="#B7B7B7" stroke-miterlimit="10"/>
<path d="M934.711 -145.161C940.121 39.3686 1066.61 134.872 1116.96 289.977C1135.72 347.757 1143.51 422.836 1124.61 482.898C1111.49 524.594 1085.64 547.513 1059.36 569.852C1031.87 593.22 1005.1 617.419 992.494 661.925C984.96 688.539 984.227 716.525 983.797 744.802C983.12 789.084 981.728 833.379 980.584 877.647C975.558 1073.23 969.571 1268.77 965.177 1464.38" stroke="#B7B7B7" stroke-miterlimit="10"/>
<path d="M953.492 -137.455C958.774 43.6308 1081.85 135.137 1132.81 285.689C1152.24 343.1 1160.58 419.089 1142.17 479.442C1129.72 520.266 1103.92 541.946 1077.91 562.292C1051.84 582.691 1026.25 604.37 1013.65 645.142C1004.86 673.55 1004.54 703.872 1003.96 734.418C1003.18 775.85 1001.72 817.281 1000.31 858.673C993.616 1055.43 983.748 1251.97 979.015 1448.86" stroke="#B7B7B7" stroke-miterlimit="10"/>
<path d="M972.176 -130.752C977.614 52.2601 1103.79 139.042 1152.5 292.933C1170.07 348.417 1177.14 422.955 1158.51 479.982C1145.96 518.366 1121.56 537.485 1096.38 555.694C1069.98 574.787 1044.72 595.186 1032.65 636.354C1024.82 663.087 1024.45 691.574 1023.97 720.062C1023.27 762.246 1021.49 804.442 1019.75 846.56C1011.66 1042.89 998.174 1238.74 993.378 1435.33" stroke="#B7B7B7" stroke-miterlimit="10"/>
<path d="M990.762 -125.183C996.227 55.0443 1119.15 138.488 1168.46 288.553C1186.74 344.182 1194.63 419.498 1176.26 477.489C1164.21 515.503 1139.77 533.369 1114.81 550.218C1089.7 567.161 1065.67 584.974 1053.37 622.948C1044.12 651.462 1044.16 682.813 1043.56 713.596C1042.74 756.321 1040.91 799.033 1038.87 841.665C1029.56 1035.91 1012.95 1229.41 1008.41 1424.1" stroke="#B7B7B7" stroke-miterlimit="10"/>
<path d="M1009.22 -120.882C1014.8 56.9439 1134.46 137.577 1184.66 284.066C1204.08 340.724 1213.2 421.437 1192.45 480.325C1180.12 515.292 1156.96 531.231 1133.14 545.983C1107.94 561.592 1084.1 578.627 1072.29 616.667C1063.14 646.171 1063.39 677.759 1062.81 709.374C1062.08 749.196 1060.33 789.004 1058.27 828.734C1048.15 1024.45 1028.14 1219.08 1024.09 1415.43" stroke="#B7B7B7" stroke-miterlimit="10"/>
<path d="M1027.55 -117.979C1033.34 59.5311 1152.12 137.473 1202.24 283.394C1221.71 340.079 1230.81 421.2 1209.98 480.102C1197.8 514.527 1175.05 529.464 1151.39 543.133C1126.33 557.621 1102.92 573.64 1091.27 611.153C1082.1 640.669 1082.24 672.548 1081.77 704.202C1081.17 744.037 1079.44 783.859 1077.27 823.576C1066.62 1019.12 1043.74 1213.23 1040.55 1409.57" stroke="#B7B7B7" stroke-miterlimit="10"/>
<path d="M1045.73 -116.606C1051.93 62.8037 1172.13 138.067 1221.27 286.521C1239.51 341.61 1247.2 416.754 1229.58 474.481C1217.97 512.562 1194.92 527.775 1169.52 541.814C1144.24 555.788 1120.87 571.133 1109.46 609.147C1101.24 636.527 1100.62 666.598 1100.34 695.93C1099.96 736.002 1098.52 776.022 1096.36 815.989C1085.68 1013.25 1059.82 1208.65 1057.85 1406.85" stroke="#B7B7B7" stroke-miterlimit="10"/>
<path d="M1063.76 -116.923C1069.72 60.6263 1188.01 137.117 1238.12 282.932C1257.69 339.881 1266.68 421.095 1245.72 480.221C1233.6 514.369 1211.17 528.936 1187.6 542.17C1162.63 556.196 1139.55 571.859 1127.95 609.094C1118.75 638.637 1118.67 670.793 1118.34 702.527C1117.92 742.441 1116.32 782.329 1114.11 822.124C1103.29 1017.46 1078 1211.04 1076.02 1407.34" stroke="#B7B7B7" stroke-miterlimit="10"/>
<path d="M1081.63 -118.864C1087.32 58.712 1206.41 137.577 1256.55 283.657C1276.05 340.46 1284.95 420.936 1264.14 479.929C1251.98 514.434 1229.32 529.991 1205.75 544.32C1180.78 559.494 1157.47 576.159 1145.81 613.711C1136.67 643.149 1136.63 674.922 1136.23 706.524C1135.71 746.464 1134.07 786.392 1131.9 826.214C1121.26 1021.23 1097.4 1214.66 1094.83 1410.56" stroke="#B7B7B7" stroke-miterlimit="10"/>
<path d="M1099.36 -122.307C1104.89 55.7305 1224.89 137.485 1275.15 284.291C1294.67 341.305 1303.41 421.134 1282.75 480.365C1270.5 515.464 1247.62 532.366 1223.97 548.121C1198.95 564.773 1175.39 582.797 1163.64 620.916C1154.55 650.407 1154.5 681.929 1154.05 713.544C1153.48 753.484 1151.83 793.386 1149.74 833.207C1139.47 1027.76 1117.19 1220.88 1114.24 1416.21" stroke="#B7B7B7" stroke-miterlimit="10"/>
<path d="M1116.98 -127.084C1122.43 53.5134 1245.72 138.237 1295.13 288.777C1313.55 344.907 1320.98 419.247 1302.76 477.752C1290.87 515.925 1266.93 535.176 1242.26 553.438C1217.47 571.805 1193.92 590.99 1181.77 629.123C1172.66 657.703 1172.35 688.988 1171.85 719.824C1171.14 762.628 1169.54 805.379 1167.35 848.078C1157.51 1040.27 1137.31 1231.29 1134.19 1424.16" stroke="#B7B7B7" stroke-miterlimit="10"/>
<path d="M1134.46 -133.087C1139.91 50.4529 1266.49 138.647 1315.33 293.145C1333.08 349.302 1339.55 422.757 1321.23 480.537C1308.97 519.185 1285.31 540.072 1260.6 560.102C1234.68 581.108 1210.18 603.341 1198.37 644.694C1190.73 671.492 1189.96 700.033 1189.59 728.56C1189.04 770.757 1187.46 812.927 1185.49 855.032C1176.47 1048.22 1157.77 1240.37 1154.59 1434.1" stroke="#B7B7B7" stroke-miterlimit="10"/>
<path d="M1151.86 -140.173C1157.18 41.5456 1280.69 134.569 1331.79 285.847C1351.47 344.115 1359.08 418.904 1341.13 480.233C1329.09 521.401 1304.35 545.31 1279 567.965C1253.6 590.673 1229.05 614.582 1216.87 655.697C1208.38 684.343 1207.67 714.718 1207.18 745.409C1206.52 786.722 1205.21 827.995 1203.44 869.242C1195.22 1061.58 1178.5 1253.09 1175.43 1445.87" stroke="#B7B7B7" stroke-miterlimit="10"/>
<path d="M1169.16 -148.209C1174.63 37.0723 1301.57 134.199 1352.08 290.148C1371.13 348.971 1378.03 422.743 1359.86 484.033C1347.36 526.23 1322.82 551.788 1297.44 576.885C1270.88 603.129 1245.5 630.073 1233.46 674.988C1226.26 701.826 1225.15 729.997 1224.82 758.419C1224.28 802.384 1222.92 846.335 1221.22 890.248C1213.86 1079.99 1199.48 1269.11 1196.65 1459.19" stroke="#B7B7B7" stroke-miterlimit="10"/>
<path d="M1186.38 -157.049C1191.96 30.436 1320.17 132.181 1371.33 290.492C1390.44 349.618 1397.09 422.533 1379.96 484.429C1367.51 529.384 1342.07 558.69 1315.92 586.702C1289.85 614.622 1264.19 644.06 1251.88 688.975C1234.51 752.402 1241.7 831.307 1239.54 898.231C1233.35 1090.19 1220.72 1281.65 1218.19 1473.85" stroke="#B7B7B7" stroke-miterlimit="10"/>
<path d="M1203.54 -166.576C1209.28 21.6478 1336.78 128.42 1389.32 286.942C1410.35 350.409 1417.42 428.457 1397.35 494.51C1384.13 538 1359.39 568.057 1334.43 597.271C1308.31 627.856 1282.79 659.3 1269.99 705.56C1251.76 771.363 1259.28 852.524 1257.39 922.047C1252.25 1111.3 1242.09 1300.24 1239.99 1489.65" stroke="#B7B7B7" stroke-miterlimit="10"/>
<path d="M1220.65 -176.63C1226.69 17.5706 1359.68 128.842 1411.13 295.084C1430.41 357.363 1435.72 431.109 1417.53 495.341C1404.25 542.235 1378.78 575.737 1352.98 608.46C1326.12 642.502 1299.68 677.627 1286.84 727.134C1270.45 790.377 1276.95 866.722 1275.6 932.973C1271.71 1124.14 1263.67 1315.11 1262.01 1506.37" stroke="#B7B7B7" stroke-miterlimit="10"/>
<path d="M1237.72 -187.107C1243.9 6.53939 1374.26 123.142 1427.99 287.536C1449.28 352.639 1455.82 427.915 1437.83 496.357C1424.61 546.616 1398.03 583.904 1371.53 620.084C1345 656.291 1318.56 693.592 1305.23 743.812C1287.3 811.382 1294.47 892.042 1293.42 963.07C1290.69 1149.97 1285.29 1336.79 1284.16 1523.74" stroke="#B7B7B7" stroke-miterlimit="10"/>
<path d="M1254.77 -197.834C1261.31 2.04029 1397.04 123.419 1449.87 295.664C1469.9 361.018 1474.79 435.7 1456.56 503.152C1442.74 554.269 1416.37 593.655 1390.1 632.026C1363.84 670.383 1337.45 709.796 1323.63 760.899C1305.53 827.876 1312.06 905.422 1311.52 975.737C1310.08 1164.36 1307.02 1352.94 1306.43 1541.57" stroke="#B7B7B7" stroke-miterlimit="10"/>
<path d="M1271.8 -208.707C1278.51 -9.24134 1411.79 117.481 1466.79 288.077C1489.39 358.154 1495.45 437.139 1475.3 510.066C1460.91 562.159 1434.74 603.551 1408.69 644.086C1382.66 684.594 1356.38 725.973 1342.08 778.105C1322.66 848.935 1329.6 931.64 1329.51 1006.19C1329.31 1190.65 1328.81 1375.13 1328.79 1559.59" stroke="#B7B7B7" stroke-miterlimit="10"/>
<path d="M1288.83 -219.579C1295.93 -15.4292 1432.53 116.123 1487.38 292.313C1508.96 361.612 1514.3 437.574 1495.98 509.631C1481.64 566.052 1454.33 611.627 1427.25 656.173C1400.17 700.705 1372.86 746.32 1358.52 802.714C1340.16 874.929 1347.11 956.803 1347.55 1032.16C1348.63 1214 1350.57 1395.82 1351.1 1577.67" stroke="#B7B7B7" stroke-miterlimit="10"/>
<path d="M1305.89 -230.32C1313.27 -23.1481 1451.19 113.286 1506.84 292.59C1529.18 364.581 1534 441.929 1514.71 516.611C1499.89 574.009 1472.66 621.576 1445.83 668.101C1419 714.626 1391.76 762.206 1376.95 819.59C1358.51 891.04 1364.58 970.46 1365.52 1045.21C1367.83 1228.64 1372.33 1412.01 1373.38 1595.48" stroke="#B7B7B7" stroke-miterlimit="10"/>
<path d="M1322.95 -240.782C1330.58 -30.972 1470.01 110.766 1526.12 292.881C1548.44 365.307 1553.42 441.877 1534.92 517.258C1519.93 578.364 1491.99 629.52 1464.39 679.739C1435.85 731.648 1406.87 784.757 1392.3 848.501C1375.84 920.557 1382.19 999.726 1383.67 1074.32C1387.24 1253.86 1394.02 1433.24 1395.54 1612.88" stroke="#B7B7B7" stroke-miterlimit="10"/>
<path d="M1340.07 -250.851C1344.22 -138.682 1389.69 -43.9435 1433.77 44.5407C1473.53 124.382 1517.7 202.72 1545.51 293.183C1567.81 365.755 1572.8 442.034 1555.15 517.666C1540.07 582.334 1511.21 637.172 1482.93 690.901C1454.66 744.63 1425.8 799.468 1410.72 864.135C1394.02 935.704 1399.6 1012.25 1401.52 1086.39C1406.18 1267.5 1415.6 1448.3 1417.57 1629.55" stroke="#B7B7B7" stroke-miterlimit="10"/>
<path d="M1357.23 -260.364C1361.41 -148.683 1406.22 -53.496 1449.69 35.173C1490.45 118.34 1536.03 199.686 1564.69 293.501C1587.63 368.592 1592.33 446.006 1573.75 524.172C1558.17 589.684 1529.48 646.092 1501.44 701.484C1473.4 756.876 1444.71 813.283 1429.13 878.795C1411.17 954.283 1417.14 1035 1419.72 1113.27C1425.58 1290.7 1437.05 1467.68 1439.35 1645.36" stroke="#B7B7B7" stroke-miterlimit="10"/>
<path d="M1374.45 -269.205C1378.7 -157.182 1423.48 -61.0706 1466.72 28.3241C1508.69 115.106 1556 200.015 1585.15 297.92C1606.95 371.138 1611.19 446.243 1594.16 522.258C1578.57 591.861 1548.82 652.108 1519.93 711.313C1491.04 770.531 1461.28 830.765 1445.69 900.381C1429.73 971.633 1434.57 1045.88 1437.31 1119.45C1444.01 1299.79 1458.28 1479.4 1460.9 1660.05" stroke="#B7B7B7" stroke-miterlimit="10"/>
<path d="M1391.75 -277.24C1395.97 -165.942 1440.09 -69.7389 1482.67 19.5635C1524.48 107.256 1571.47 192.626 1601.8 290.321C1625.93 368.025 1631.2 446.771 1612.58 528.117C1596.52 598.287 1566.99 659.735 1538.36 720.234C1509.74 780.732 1480.2 842.18 1464.15 912.35C1446.98 987.349 1452.16 1065.7 1455.55 1143.19C1463.3 1320.08 1479.36 1496.03 1482.11 1673.37" stroke="#B7B7B7" stroke-miterlimit="10"/>
<path d="M1409.14 -284.325C1412.95 -183.847 1449.47 -95.7191 1487.07 -13.6606C1524.28 67.5137 1565.76 144.888 1599.1 229.651C1622.5 289.186 1644.03 356.176 1644.04 426.016C1644.06 485.459 1630.79 543.437 1612.51 596.084C1575.47 702.79 1517.27 792.607 1487.19 904.605C1456.62 1018.41 1472.08 1148.68 1479.88 1267.04C1489.06 1406.27 1500.73 1545.17 1502.95 1685.13" stroke="#B7B7B7" stroke-miterlimit="10"/>
<path d="M1426.63 -290.33C1430.4 -190.023 1466.84 -101.645 1504.11 -19.4676C1542.48 65.1374 1585.52 145.678 1619.67 234.15C1642.71 293.83 1663.23 360.226 1662.92 429.789C1662.65 489.284 1649.08 547.196 1630.94 600.028C1593.69 708.568 1535.96 800.972 1505.41 914.526C1474.85 1028.12 1489.52 1155.94 1498 1274C1508.07 1414.21 1521.19 1553.97 1523.36 1695.08" stroke="#B7B7B7" stroke-miterlimit="10"/>
<path d="M1444.23 -295.119C1448.04 -191.619 1486.82 -100.034 1525.28 -15.4293C1562.5 66.4576 1603.65 144.98 1636.88 230.522C1660.81 292.115 1682.67 361.177 1681.77 433.247C1681.03 492.663 1667.23 550.298 1649.22 603.116C1611.78 713.003 1554.49 807.609 1523.6 922.338C1492.54 1037.7 1507.24 1166.45 1516.55 1286.25C1527.34 1424.98 1541.34 1563.2 1543.3 1702.99" stroke="#B7B7B7" stroke-miterlimit="10"/>
<path d="M1461.97 -298.549C1465.69 -194.772 1504.87 -102.633 1543.26 -17.7111C1580.67 65.0203 1621.97 144.427 1655.4 230.773C1679.3 292.499 1701.28 361.613 1700.38 433.788C1699.64 493.389 1685.68 551.183 1667.76 604.252C1630.04 716.012 1572.66 812.862 1541.46 929.385C1510.52 1044.88 1524.89 1173.19 1534.75 1292.98C1546.13 1431.35 1561.07 1569.09 1562.71 1708.68" stroke="#B7B7B7" stroke-miterlimit="10"/>
<path d="M1479.84 -300.502C1483.36 -197.464 1522.33 -105.787 1560.27 -21.327C1598.73 64.2677 1641.49 146.287 1675.53 235.879C1698.01 295.058 1718.8 360.662 1718.79 429.486C1718.79 490.961 1704.21 550.773 1685.8 605.465C1648.02 717.727 1591.26 815.645 1559.75 932.472C1528.31 1049.03 1542.59 1178.83 1553.03 1299.75C1564.87 1436.91 1580.35 1573.37 1581.54 1711.9" stroke="#B7B7B7" stroke-miterlimit="10"/>
<path d="M1497.86 -300.898C1501.63 -198.018 1540.62 -106.315 1578.38 -21.8019C1616.74 64.083 1659.37 146.458 1693.38 236.262C1715.7 295.216 1736.79 360.94 1736.79 429.513C1736.79 490.684 1721.92 550.417 1703.69 604.859C1665.9 717.74 1609.48 816.701 1577.86 934.029C1546.46 1050.51 1560.37 1179.77 1570.97 1300.59C1582.99 1437.69 1598.81 1574 1599.69 1712.54" stroke="#B7B7B7" stroke-miterlimit="10"/>
<path d="M1515.93 -300.898C1520.73 -198.295 1558.87 -106.79 1596.25 -21.8679C1633.97 63.8455 1675.8 146.181 1709.3 235.629C1731.26 294.253 1753.05 360.874 1753.08 428.985C1753.1 489.787 1737.63 550.127 1719.73 604.291C1682.45 717.107 1627.23 816.675 1595.88 933.726C1564.52 1050.8 1578.11 1178.82 1588.57 1300.24C1600.4 1437.36 1615.87 1573.77 1617 1712.26" stroke="#B7B7B7" stroke-miterlimit="10"/>
<path d="M1534 -300.898C1539.5 -198.744 1576.56 -107.436 1613.34 -22.145C1650.18 63.3177 1691 145.574 1723.77 234.586C1745.27 293.013 1767.33 360.227 1767.36 427.89C1767.4 488.388 1751.65 549.163 1734.16 603.222C1697.67 715.998 1643.87 816.252 1613.07 933.013C1582.05 1050.63 1595.27 1177.67 1605.53 1299.55C1617.08 1436.74 1632.13 1573.24 1633.44 1711.72" stroke="#B7B7B7" stroke-miterlimit="10"/>
<path d="M1552.07 -300.886C1557.98 -199.339 1593.77 -108.229 1629.72 -22.6344C1665.49 62.5248 1705.11 144.636 1736.91 233.147C1757.89 291.507 1779.79 359.025 1779.85 426.252C1779.89 486.487 1764.18 547.552 1747.16 601.651C1711.68 714.4 1659.53 815.407 1629.55 931.89C1599.15 1050.01 1611.95 1176.28 1621.93 1298.52C1633.15 1435.79 1647.72 1572.42 1649.13 1710.88" stroke="#B7B7B7" stroke-miterlimit="10"/>
<path d="M1570.12 -300.886C1576.25 -199.286 1611.07 -107.648 1646.32 -21.2093C1680 61.3769 1717.04 141.324 1747.27 226.76C1768.78 287.575 1791.57 358.801 1790.53 428.641C1789.66 486.988 1775.16 545.679 1759.16 598.55C1724.78 712.184 1673.91 814.694 1644.97 931.877C1616.03 1049.07 1628.11 1173.32 1637.59 1294.3C1648.43 1432.63 1662.65 1570.36 1664.12 1709.8" stroke="#B7B7B7" stroke-miterlimit="10"/>
<path d="M1588.18 -300.886C1594.24 -200.118 1627.42 -108.73 1661.47 -22.0538C1693.74 60.1233 1729.29 139.833 1758.21 224.689C1778.99 285.662 1800.91 356.716 1799.9 426.107C1799.05 484.31 1785.07 543.026 1769.66 596.162C1736.71 709.809 1687.9 813.19 1660.19 930.109C1632.32 1047.7 1643.92 1171.61 1653.01 1292.73C1663.4 1431.17 1677 1569.07 1678.47 1708.54" stroke="#B7B7B7" stroke-miterlimit="10"/>
<path d="M1606.23 -300.886C1617.38 -109.007 1713.02 53.1698 1768.2 222.327C1788.17 283.551 1808.92 354.209 1807.96 423.178C1807.16 481.275 1793.86 539.939 1779.12 593.417C1747.78 707.091 1701.19 811.369 1674.87 928.038C1648.26 1046.01 1659.34 1169.73 1667.99 1290.91C1677.89 1429.48 1690.83 1567.55 1692.25 1707.05" stroke="#B7B7B7" stroke-miterlimit="10"/>
<path d="M1624.29 -300.886C1634.59 -111.158 1725 50.7419 1777.38 219.728C1796.46 281.281 1815.82 351.346 1814.93 419.932C1814.17 477.95 1801.71 536.508 1787.7 590.369C1758.12 704.095 1713.91 809.284 1689.13 925.715C1663.94 1044.05 1674.48 1167.67 1682.65 1288.88C1692.01 1427.58 1704.26 1565.85 1705.59 1705.38" stroke="#B7B7B7" stroke-miterlimit="10"/>
<path d="M1642.34 -300.898C1651.56 -113.466 1736.56 48.1962 1785.9 216.931C1804.01 278.854 1821.79 348.206 1820.97 416.41C1820.28 474.375 1808.76 532.788 1795.54 587.085C1767.84 700.877 1726.13 807.002 1703.01 923.209C1679.4 1041.87 1689.36 1165.5 1697.02 1286.69C1705.8 1425.53 1717.32 1564 1718.51 1703.59" stroke="#B7B7B7" stroke-miterlimit="10"/>
<path d="M1660.39 -300.898C1668.33 -115.854 1747.77 45.6104 1793.85 213.976C1810.91 276.308 1826.97 344.829 1826.23 412.663C1825.61 470.602 1815.13 528.83 1802.75 583.589C1777.02 697.46 1737.94 804.536 1716.56 920.531C1694.64 1039.51 1704 1163.21 1711.13 1284.35C1719.32 1423.36 1730.07 1562.02 1731.12 1701.68" stroke="#B7B7B7" stroke-miterlimit="10"/>
<path d="M1678.43 -300.898C1684.96 -118.322 1758.73 42.9846 1801.37 210.902C1817.3 273.643 1831.54 341.279 1830.9 408.758C1830.35 466.696 1820.96 524.713 1809.48 579.947C1785.79 693.91 1749.43 801.91 1729.86 917.734C1709.71 1037.01 1718.47 1160.82 1725.04 1281.92C1732.6 1421.09 1742.57 1559.96 1743.44 1699.68" stroke="#B7B7B7" stroke-miterlimit="10"/>
<path d="M1696.48 -300.898C1701.56 -119.589 1770.46 42.6676 1809.43 211.324C1823.58 272.574 1835.36 337.136 1835.14 402.147C1834.94 460.573 1826.71 518.894 1816.13 575.064C1794.46 690.057 1760.53 799.759 1742.81 916.374C1724.86 1034.49 1732.79 1156.9 1738.69 1276.47C1745.62 1416.8 1754.93 1556.85 1755.61 1697.64" stroke="#B7B7B7" stroke-miterlimit="10"/>
<path d="M1714.54 -300.898C1718.07 -122.082 1781.11 40.0289 1816.41 208.078C1842.24 331.053 1843.48 446.692 1822.34 571.225C1802.79 686.323 1771.74 796.948 1755.9 913.419C1739.78 1031.84 1747.09 1154.33 1752.43 1273.91C1758.71 1414.41 1767.21 1554.67 1767.69 1695.54" stroke="#B7B7B7" stroke-miterlimit="10"/>
<path d="M1732.57 -300.912C1734.59 -124.563 1791.73 37.4293 1823.32 204.818C1846.34 326.765 1847.11 444.159 1828.48 567.372C1811.06 682.602 1782.91 794.085 1768.94 910.45C1754.67 1029.18 1761.35 1151.7 1766.13 1271.33C1771.76 1411.98 1779.44 1552.46 1779.71 1693.43" stroke="#B7B7B7" stroke-miterlimit="10"/>
<path d="M1750.62 -300.912C1751.17 -126.965 1802.45 34.9221 1830.33 201.586C1850.56 322.569 1850.91 441.559 1834.71 563.558C1819.39 678.92 1794.16 791.235 1782.03 907.52C1769.59 1026.55 1775.65 1149.08 1779.88 1268.78C1784.86 1409.6 1791.72 1550.27 1791.8 1691.34" stroke="#B7B7B7" stroke-miterlimit="10"/>
<path d="M1768.67 -300.912C1767.87 -129.247 1813.35 32.5341 1837.54 198.419C1855.07 318.571 1855.07 438.894 1841.19 559.825C1827.93 675.332 1805.6 788.411 1795.24 904.657C1784.6 1023.99 1790.02 1146.47 1793.72 1266.3C1798.07 1407.27 1804.12 1548.14 1804.01 1689.31" stroke="#B7B7B7" stroke-miterlimit="10"/>
<path d="M1786.71 -300.912C1784.7 -131.411 1824.47 30.2646 1845.08 195.345C1860 314.837 1859.7 436.137 1848.01 556.209C1836.75 671.875 1817.27 785.654 1808.63 901.887C1799.73 1021.54 1804.53 1143.89 1807.7 1263.89C1811.42 1405.02 1816.69 1546.06 1816.4 1687.33" stroke="#B7B7B7" stroke-miterlimit="10"/>
<path d="M1804.77 -300.912C1801.74 -133.391 1835.94 28.1399 1853.1 192.415C1865.54 311.445 1865.01 433.326 1855.36 552.765C1846.01 668.589 1829.31 783.014 1822.29 899.26C1815.04 1019.21 1819.22 1141.41 1821.89 1261.59C1825.02 1402.87 1829.52 1544.08 1829.08 1685.46" stroke="#B7B7B7" stroke-miterlimit="10"/>
<path d="M1822.82 -300.912C1819.04 -136.65 1847.3 23.3373 1861.33 185.317C1871.71 305.178 1871.23 428.18 1863.43 548.371C1855.84 665.277 1841.66 781.154 1836.18 898.363C1824 1159.03 1843.13 1422.7 1842.11 1683.72" stroke="#B7B7B7" stroke-miterlimit="10"/>
<path d="M1840.87 -300.912C1836.55 -138.193 1859.74 21.5692 1870.73 182.796C1878.9 302.592 1878.26 425.409 1872.19 545.416C1866.26 662.48 1854.68 778.858 1850.57 896.133C1841.42 1157.47 1856.73 1420.56 1855.54 1682.12" stroke="#B7B7B7" stroke-miterlimit="10"/>
<path d="M1858.93 -300.912C1854.37 -139.513 1872.76 20.0119 1880.99 180.513C1893.25 419.669 1871.33 655.605 1865.44 894.141C1858.98 1155.98 1870.75 1418.73 1869.49 1680.68" stroke="#B7B7B7" stroke-miterlimit="10"/>
<path d="M1876.99 -300.912C1872.51 -140.595 1886.43 18.6661 1892.21 178.508C1900.83 417.096 1884.63 654.141 1880.85 892.426C1876.68 1154.59 1885.25 1417.18 1884.01 1679.43" stroke="#B7B7B7" stroke-miterlimit="10"/>
<path d="M1895.05 -300.912C1891.03 -141.426 1900.83 17.5445 1904.52 176.832C1910.04 415.143 1898.96 652.861 1896.85 891.053C1894.53 1153.44 1900.28 1415.99 1899.16 1678.43" stroke="#B7B7B7" stroke-miterlimit="10"/>
<path d="M1913.11 -300.912C1909.95 -142.02 1916.05 16.6739 1918.06 175.5C1921.07 413.732 1914.41 651.819 1913.53 890.037C1912.56 1152.56 1915.92 1415.12 1915.04 1677.66" stroke="#B7B7B7" stroke-miterlimit="10"/>
<path d="M595.145 -299.961C598.651 -196.712 637.859 -104.599 675.942 -20.0597C713.365 63.0147 754.652 142.764 788.258 229.309C812.096 290.704 834.909 360.491 833.829 432.509C832.95 491.344 815.978 546.208 794.034 594.831C747.209 698.595 677.562 779.281 638.097 890.236C594.366 1013.19 623.771 1156.01 647.298 1281.7C677.645 1443.85 721.302 1607.23 725.074 1776.7" stroke="#B7B7B7" stroke-miterlimit="10"/>
<path d="M1949.21 -170.798C1833.56 -172.104 1718.03 -165.177 1602.4 -163.594C1547.94 -162.855 1494.48 -166.035 1440.88 -149.357C1390.64 -133.721 1342.26 -107.925 1294.08 -82.5646C1245.9 -57.2042 1197.51 -31.4084 1147.28 -15.7726C1091.7 1.5258 1039.52 -0.796477 984.088 -18.4247C855.166 -59.4341 735.205 -153.671 601.66 -163.528" stroke="#B7B7B7" stroke-miterlimit="10"/>
<path d="M1949.21 -144.765C1835.6 -145.966 1722.2 -137.112 1608.64 -134.961C1557.45 -133.985 1507.02 -136.94 1456.48 -122.941C1403.97 -108.387 1353.28 -83 1302.79 -58.0882C1252.31 -33.1896 1201.62 -7.80282 1149.11 6.76423C1096.57 21.3313 1047.18 18.8375 994.771 3.32039C865.455 -34.9577 744.68 -125.105 611.309 -134.671" stroke="#B7B7B7" stroke-miterlimit="10"/>
<path d="M1949.21 -118.745C1839.61 -119.761 1730.33 -109.152 1620.8 -106.157C1567.9 -104.705 1515.73 -107.529 1463.45 -93.5162C1412.1 -79.7673 1362.26 -56.6104 1312.59 -33.8098C1262.91 -11.0092 1213.07 12.1477 1161.72 25.8967C1105.24 41.0179 1051.8 37.9039 995.612 21.3181C870.096 -15.7461 751.509 -96.7622 622.156 -105.497" stroke="#B7B7B7" stroke-miterlimit="10"/>
<path d="M1949.21 -92.7108C1843.83 -93.4761 1738.95 -81.0597 1633.68 -77.1409C1579.13 -75.1089 1525.27 -77.827 1471.28 -64.0517C1421.07 -51.2527 1372.1 -30.2994 1323.24 -9.68912C1274.38 10.9343 1225.41 31.8745 1175.2 44.6734C1118.56 59.1217 1064.61 57.3404 1008.12 42.1268C882.333 8.269 762.996 -68.1157 633.945 -76.0325" stroke="#B7B7B7" stroke-miterlimit="10"/>
<path d="M1949.22 -66.6913C1845.86 -67.1663 1743.25 -52.2166 1640.04 -47.6644C1588.45 -45.3949 1537.33 -47.704 1486.14 -36.0794C1434.89 -24.4416 1384.71 -4.97928 1334.66 14.2983C1231.45 54.041 1131.27 88.4663 1024.13 63.1191C897.146 33.0745 776.243 -39.3649 646.57 -46.3186" stroke="#B7B7B7" stroke-miterlimit="10"/>
<path d="M1949.23 -40.6578C1850.4 -40.8162 1752.66 -23.9136 1654.06 -18.3322C1602.65 -15.4162 1551.53 -17.844 1500.43 -7.61808C1448.53 2.76623 1397.54 20.566 1346.64 38.181C1239.63 75.232 1137.02 105.659 1026.86 80.5232C903.738 52.4446 785.371 -10.8376 659.836 -16.419" stroke="#B7B7B7" stroke-miterlimit="10"/>
<path d="M1949.25 -14.6379C1855.01 -14.4664 1762.29 4.38895 1668.38 11.0655C1617.22 14.7073 1566.16 12.0815 1515.21 20.9088C1462.63 30.0132 1410.8 46.0845 1359.07 61.9842C1253.04 94.5886 1149.62 121.875 1041.07 100.315C917.831 75.8388 798.75 17.9004 673.59 13.5989" stroke="#B7B7B7" stroke-miterlimit="10"/>
<path d="M1949.25 11.396C1858.13 11.8974 1769.09 33.3917 1678.4 40.86C1627.2 45.0691 1576.01 42.5093 1524.94 50.3998C1473.47 58.3563 1422.57 72.1316 1371.71 85.7751C1266.43 114.025 1162.74 137.974 1055.5 119.857C932.189 99.0359 812.394 46.6921 687.582 43.7365" stroke="#B7B7B7" stroke-miterlimit="10"/>
<path d="M1949.26 37.429C1861.95 38.247 1777.46 62.1164 1690.72 70.4951C1640.98 75.298 1591.14 72.6063 1541.44 78.8342C1488.81 85.4316 1436.62 97.5445 1384.49 109.512C1276.89 134.226 1170.68 154.374 1061.65 137.947C941.199 119.804 823.372 75.43 701.719 73.873" stroke="#B7B7B7" stroke-miterlimit="10"/>
<path d="M1949.27 63.4492C1866.38 64.5444 1787.27 90.3006 1705.14 99.8932C1653.86 105.884 1602.38 102.677 1551.06 108.1C1499.56 113.537 1448.35 123.446 1397.19 133.276C1290.33 153.807 1184.04 170.406 1076.17 157.396C955.63 142.855 837.162 104.221 715.773 104.01" stroke="#B7B7B7" stroke-miterlimit="10"/>
<path d="M1949.28 89.4836C1902.58 90.2885 1856.75 95.6852 1810.87 108.075C1779.08 116.665 1747.45 125.558 1715.19 129.715C1667.4 135.877 1619.42 132.736 1571.56 136.272C1517.43 140.27 1463.53 148.728 1409.68 157.081C1303.44 173.561 1197.41 186.584 1090.5 176.794C969.879 165.75 850.788 133 729.602 134.069" stroke="#B7B7B7" stroke-miterlimit="10"/>
<path d="M1949.28 115.502C1904.86 116.426 1861.46 121.717 1818.04 135.281C1787.74 144.742 1757.83 154.665 1726.91 159.177C1678.68 166.223 1630.23 162.634 1581.87 165.234C1528.4 168.097 1475.08 174.562 1421.77 180.935C1313.29 193.919 1204.79 203.419 1095.92 195.634C978.075 187.203 861.2 161.803 742.988 164.007" stroke="#B7B7B7" stroke-miterlimit="10"/>
<path d="M1949.29 141.536C1907.32 142.552 1866.24 147.381 1825.47 162.067C1797.12 172.293 1769.26 183.218 1740.15 188.219C1692.23 196.452 1644 192.336 1595.88 193.84C1541.65 195.529 1487.49 200.252 1433.35 204.91C1325.48 214.186 1217.51 220.216 1109.44 215.426C991.427 210.188 874.012 190.554 755.801 193.787" stroke="#B7B7B7" stroke-miterlimit="10"/>
<path d="M1949.3 167.557C1908.58 168.665 1868.79 173.336 1829.6 189.777C1802.85 200.992 1776.7 212.604 1748.94 217.684C1700.65 226.524 1651.84 221.787 1603.32 222.46C1550.26 223.199 1497.25 226.115 1444.25 228.978C1336.98 234.784 1229.66 237.449 1122.33 235.378C1004.1 233.095 886.164 219.214 767.852 223.305" stroke="#B7B7B7" stroke-miterlimit="10"/>
<path d="M1949.3 193.589C1909.74 194.75 1871.06 199.131 1833.4 217.405C1808.1 229.69 1783.69 241.869 1757.04 246.975C1710.17 255.947 1662.77 251.079 1615.67 250.828C1561.87 250.551 1508.07 251.897 1454.28 253.216C1347.66 255.829 1241.06 255.314 1134.45 255.631C1015.93 255.987 897.488 247.846 778.965 252.57" stroke="#B7B7B7" stroke-miterlimit="10"/>
<path d="M1949.3 219.61C1910.75 220.784 1873.04 224.848 1836.83 244.931C1813.94 257.624 1792.26 269.948 1767.8 275.266C1721.2 285.399 1673.88 280.082 1626.99 279.079C1572.43 277.918 1517.86 277.786 1463.3 277.627C1238.56 276.994 1013.65 271.835 788.941 281.52" stroke="#B7B7B7" stroke-miterlimit="10"/>
<path d="M1949.3 245.63C1911.62 246.792 1874.64 250.367 1839.79 272.323C1819.15 285.334 1799.99 297.71 1777.53 303.226C1729.31 315.088 1679.58 308.636 1630.98 306.973C1577.71 305.152 1524.43 303.701 1471.15 302.249C1362.05 299.267 1253.15 293.805 1144.06 297.842C1028.59 302.104 913.097 305.047 797.641 310.087" stroke="#B7B7B7" stroke-miterlimit="10"/>
<path d="M1949.3 271.663C1912.65 272.758 1876.04 275.502 1842.7 299.213C1823.33 312.976 1805.81 325.603 1784.25 331.237C1736.34 343.746 1686.44 336.977 1638.12 334.8C1584.63 332.385 1531.15 329.759 1477.67 327.134C1368.36 321.776 1259.32 314.335 1149.98 319.89C1034.93 325.735 919.927 333.493 804.855 338.23" stroke="#B7B7B7" stroke-miterlimit="10"/>
<path d="M1949.29 297.683C1913.25 298.686 1876.59 300.639 1844.41 326.25C1825.87 341.002 1809.22 353.735 1788.01 359.263C1743.23 370.954 1696.51 365.082 1651.36 362.76C1595.12 359.87 1538.91 356.044 1482.71 352.244C1374.25 344.92 1266.01 335.882 1157.46 342.453C1041.74 349.459 926.234 361.77 810.43 365.887" stroke="#B7B7B7" stroke-miterlimit="10"/>
<path d="M1949.28 323.703C1913.92 324.574 1876.88 325.551 1845.81 352.692C1828.16 368.117 1812.68 380.89 1791.96 386.458C1747.31 398.439 1700.2 392.607 1655.16 390.139C1598.77 387.052 1542.44 382.328 1486.1 377.683C1377.55 368.711 1269.17 358.775 1160.45 366.019C1044.95 373.712 929.846 390.007 814.18 393.042" stroke="#B7B7B7" stroke-miterlimit="10"/>
<path d="M1949.26 349.724C1914.36 350.41 1876.59 350.424 1846.34 378.858C1829.33 394.851 1814.75 407.597 1794.29 413.152C1749.67 425.251 1702.06 419.657 1657.03 417.189C1600.53 414.115 1544.1 408.718 1487.69 403.414C1379.1 393.201 1270.59 382.975 1161.76 390.43C1046.35 398.334 931.588 418.087 815.949 419.578" stroke="#B7B7B7" stroke-miterlimit="10"/>
<path d="M1949.26 375.744C1914.26 376.417 1876.64 376.575 1846.26 404.865C1829.14 420.817 1814.41 433.616 1793.89 439.171C1749.45 451.205 1701.61 446.442 1656.73 444.146C1600.22 441.256 1543.83 435.054 1487.45 428.985C1378.99 417.294 1270.48 407.319 1161.68 414.708C1046.11 422.559 931.485 446.244 815.59 445.492" stroke="#B7B7B7" stroke-miterlimit="10"/>
<path d="M1949.27 401.777C1913.83 402.503 1876.68 403.373 1845.62 430.819C1827.96 446.428 1812.51 459.346 1791.69 464.927C1747.4 476.816 1699.52 472.976 1654.77 470.614C1598.32 467.632 1542.02 460.23 1485.78 452.986C1377.5 439.039 1269.12 428.47 1160.37 436.36C1044.35 444.779 929.72 473.477 813.266 470.825" stroke="#B7B7B7" stroke-miterlimit="10"/>
<path d="M1949.28 427.797C1913.22 428.576 1876.32 430.199 1844.36 456.681C1825.97 471.908 1809.61 484.931 1788.34 490.525C1744.07 502.19 1696.15 499.142 1651.44 496.437C1595.06 493.032 1538.93 484.1 1482.85 475.378C1374.77 458.568 1266.58 446.481 1157.83 455.467C1041.18 465.099 926.456 499.511 809.188 495.553" stroke="#B7B7B7" stroke-miterlimit="10"/>
<path d="M1949.29 453.831C1912.7 454.636 1875.86 456.892 1842.98 482.081C1823.98 496.635 1807.1 509.764 1785.58 515.556C1686.17 542.289 1577.67 514.949 1478.74 496.358C1369.94 475.906 1260.98 461.405 1151.19 472.594C1034.74 484.469 920.814 524.489 803.5 519.792" stroke="#B7B7B7" stroke-miterlimit="10"/>
<path d="M1949.29 479.851C1912.12 480.669 1874.99 483.453 1841.15 507.415C1820.4 522.114 1801.61 535.547 1778.49 541.273C1678.51 566.027 1572.46 538.251 1473.59 516.005C1364.08 491.37 1254.48 473.689 1143.54 487.742C1027.15 502.48 913.947 548.451 796.34 543.516" stroke="#B7B7B7" stroke-miterlimit="10"/>
<path d="M1949.29 505.871C1911.11 506.703 1873.54 510.186 1838.38 533.079C1816.48 547.343 1796.26 560.775 1772.25 566.488C1671.37 590.516 1566.59 560.947 1467.52 534.531C1358.27 505.396 1249.18 484.047 1137.92 500.805C1020.45 518.499 906.997 571.595 787.906 566.858" stroke="#B7B7B7" stroke-miterlimit="10"/>
<path d="M1949.29 531.904C1910.28 532.735 1872.13 536.68 1835.8 558.346C1811.89 572.61 1789.43 586.451 1763.56 592.032C1661.94 613.975 1559.58 583.02 1460.63 552.052C1354.6 518.867 1249.18 493.507 1140.36 510.792C1018.52 530.135 902.13 594.104 778.344 589.855" stroke="#B7B7B7" stroke-miterlimit="10"/>
<path d="M1949.29 557.924C1909.41 558.729 1870.48 563.07 1832.96 583.574C1808.09 597.165 1784.26 610.901 1757.74 616.68C1654.53 639.151 1552.58 604.765 1453.03 568.704C1346.34 530.056 1240.74 499.853 1130.34 521.203C1008.24 544.808 892.469 615.757 767.812 612.511" stroke="#B7B7B7" stroke-miterlimit="10"/>
<path d="M1949.28 583.945C1908.44 584.723 1868.67 589.473 1829.92 608.79C1803.88 621.761 1778.85 635.325 1751.43 641.263C1646.35 664.024 1545.08 626.287 1444.86 584.644C1337.47 540.019 1231.98 504.776 1119.75 530.664C997.336 558.901 882.163 636.856 756.473 634.916" stroke="#B7B7B7" stroke-miterlimit="10"/>
<path d="M1949.27 609.978C1906.31 610.743 1864.95 616.391 1823.95 635.286C1796.42 647.979 1769.79 660.923 1740.97 666.544C1634.76 687.273 1536.22 647.108 1436.21 600.016C1328.02 549.071 1223 508.563 1108.69 539.425C985.991 572.557 871.276 657.492 744.469 657.123" stroke="#B7B7B7" stroke-miterlimit="10"/>
<path d="M1949.27 635.998C1904.47 636.723 1861.3 642.951 1818.34 661.371C1789.82 673.59 1761.78 685.927 1732.16 691.429C1624.24 711.472 1527.39 667.929 1427.23 614.939C1321.65 559.085 1219.4 512.56 1106.13 545.059C979.726 581.332 863.117 677.772 732.016 679.158" stroke="#B7B7B7" stroke-miterlimit="10"/>
<path d="M1949.26 662.018C1903.4 662.704 1858.99 669.116 1814.73 686.507C1785.01 698.184 1755.67 710.31 1725.01 715.931C1674.3 725.234 1622.58 724.561 1572.67 707.856C1519.35 690.004 1468.53 659.379 1418.01 629.585C1367.49 599.791 1316.67 569.179 1263.34 551.313C1207.02 532.445 1150.77 534.305 1094.53 552.738C967.819 594.262 851.603 697.762 719.211 701.087" stroke="#B7B7B7" stroke-miterlimit="10"/>
<path d="M1949.25 688.051C1902.32 688.684 1856.67 695.229 1811.16 711.669C1778.87 723.334 1747 735.605 1713.82 741.107C1664.49 749.288 1614.93 749.261 1566.57 731.831C1511.72 712.065 1460 677.495 1408.67 644.099C1357.34 610.703 1305.62 576.146 1250.77 556.367C1194.38 536.033 1138.99 539.702 1082.83 560.417C955.872 607.246 839.959 717.633 706.258 722.99" stroke="#B7B7B7" stroke-miterlimit="10"/>
<path d="M1949.24 714.072C1901.26 714.639 1854.4 721.263 1807.66 736.833C1772.76 748.47 1738.31 760.847 1702.59 766.257C1654.87 773.501 1607.01 773.923 1560.35 756.005C1503.97 734.352 1451.39 695.731 1399.33 658.588C1347.29 621.457 1294.69 582.823 1238.31 561.17C1186.13 541.127 1134.88 544.241 1082.83 563.691C950.782 613.039 832.543 737.228 693.312 744.868" stroke="#B7B7B7" stroke-miterlimit="10"/>
<path d="M1949.24 740.092C1900.23 740.606 1852.24 747.243 1804.32 762.021C1768.18 773.171 1732.4 785.297 1695.56 790.786C1643.99 798.465 1593.43 798.439 1543.51 775.876C1489.6 751.505 1439.67 711.644 1390.12 673.234C1340.58 634.824 1290.65 594.962 1236.74 570.591C1180.54 545.178 1127.47 548.292 1071.27 571.541C939.048 626.234 821.084 757.126 680.535 766.811" stroke="#B7B7B7" stroke-miterlimit="10"/>
<path d="M1949.23 766.126C1899.23 766.587 1850.19 773.211 1801.15 787.264C1763.81 797.965 1726.73 809.827 1688.8 815.369C1637.41 822.876 1587.14 823.945 1537.6 800.485C1482.14 774.214 1431.34 730.262 1381.13 688.184C1330.93 646.106 1280.13 602.141 1224.67 575.883C1168.39 549.23 1116.09 554.639 1059.9 580.079C927.696 639.904 809.796 777.249 668.066 788.873" stroke="#B7B7B7" stroke-miterlimit="10"/>
<path d="M1949.23 792.145C1895.98 792.581 1843.84 800.049 1791.56 814.339C1753.17 824.829 1714.95 835.807 1675.98 840.874C1624.48 847.577 1574.78 847.946 1525.51 822.137C1470.97 793.57 1421.47 747.573 1372.5 703.542C1323.54 659.498 1274.04 613.514 1219.5 584.948C1164.26 556.025 1112.98 559.811 1057.62 585.304C921.629 647.913 802.127 797.45 656.086 811.08" stroke="#B7B7B7" stroke-miterlimit="10"/>
<path d="M1949.23 818.165C1854.12 818.851 1764.04 853.488 1670.01 865.561C1618.64 872.145 1569.28 873.781 1520.35 847.392C1464.17 817.097 1413.96 767.035 1364.33 719.481C1314.69 671.927 1264.49 621.866 1208.31 591.571C1152.84 561.658 1102.62 567.9 1047.06 595.464C911.128 662.889 791.882 818.337 644.742 833.484" stroke="#B7B7B7" stroke-miterlimit="10"/>
<path d="M1949.22 844.198C1852.53 844.832 1760.31 878.201 1664.61 890.327C1609.56 897.307 1557.49 898.68 1505.65 867.223C1451.93 834.619 1404.11 784.268 1356.74 736.146C1309.36 688.012 1261.54 637.66 1207.82 605.069C1182.53 589.724 1154 576.397 1126.22 577.479C1095.94 578.653 1065.27 592.019 1037.07 606.956C901.385 678.828 782.322 839.831 634.203 856.153" stroke="#B7B7B7" stroke-miterlimit="10"/>
<path d="M1949.22 870.219C1849.62 870.813 1754.12 904.05 1655.41 915.715C1602.24 921.995 1551.8 924.08 1501.8 893.31C1446.42 859.228 1397.86 805.023 1349.83 753.656C1301.79 702.302 1253.23 648.085 1197.85 614.002C1172.79 598.578 1144.43 585.436 1116.86 587.811C1086.32 590.436 1056.06 604.053 1027.75 619.94C962.035 656.806 901.606 710.984 840.281 760.478C773.123 814.669 702.716 870.153 624.629 879.112" stroke="#B7B7B7" stroke-miterlimit="10"/>
<path d="M1949.22 896.239C1847.7 896.833 1749.89 929.424 1649.19 940.93C1595.74 947.026 1545.1 949.599 1495.08 917.536C1439.57 881.963 1391.4 825.489 1343.76 772.182C1296.13 718.875 1247.95 662.401 1192.45 626.828C1167.52 610.849 1139.18 597.298 1111.55 599.726C1080.85 602.418 1050.46 616.576 1022.13 633.003C955.716 671.492 894.894 727.808 833.11 779.228C765.889 835.187 695.061 893.284 616.195 902.467" stroke="#B7B7B7" stroke-miterlimit="10"/>
<path d="M1949.22 922.272C1845.28 922.892 1744.75 955.418 1641.55 966.528C1590.12 972.069 1541.14 975.289 1493.04 944.637C1435.82 908.18 1386.84 848.065 1338.61 791.855C1290.39 735.645 1241.4 675.53 1184.18 639.072C1129.92 604.489 1080.76 612.195 1026.17 642.807C955.031 682.694 890.684 744.802 825.303 800.603C758.594 857.539 687.922 917.219 609.047 926.231" stroke="#B7B7B7" stroke-miterlimit="10"/>
<path d="M1949.22 948.291C1844.67 948.964 1743.27 980.46 1639.44 991.729C1584.71 997.666 1533.01 1000.95 1482.33 965.788C1427.57 927.787 1380.78 868.568 1334.51 812.807C1288.23 757.059 1241.45 697.828 1186.69 659.827C1129.67 620.256 1077.21 627.645 1019.58 661.265C948.394 702.802 884.166 766.309 818.739 823.323C752.607 880.958 682.127 941.931 603.371 950.416" stroke="#B7B7B7" stroke-miterlimit="10"/>
<path d="M1949.23 974.325C1843.65 975.09 1740.98 1006.11 1636.08 1017.33C1581.48 1023.16 1529.47 1027.12 1479 991.584C1424.08 952.91 1377.55 892.174 1331.57 835.225C1285.59 778.263 1239.06 717.528 1184.14 678.867C1127.47 638.966 1074.29 646.566 1017.02 680.411C945.325 722.779 880.869 787.843 815.185 846.124C749.2 904.67 678.436 967.503 599.277 975.196" stroke="#B7B7B7" stroke-miterlimit="10"/>
<path d="M1949.24 1000.35C1843 1001.26 1739.48 1031.86 1633.89 1043.06C1579.59 1048.82 1527.26 1053.52 1477.05 1018C1421.95 979.01 1375.63 917.048 1329.91 859.175C1284.19 801.316 1237.87 739.34 1182.76 700.349C1126.58 660.607 1072.45 668.286 1015.71 702.012C943.596 744.869 878.993 811.212 813.127 870.443C747.379 929.583 676.359 994 596.953 1000.47" stroke="#B7B7B7" stroke-miterlimit="10"/>
<path d="M1949.25 1026.38C1842.82 1027.45 1738.99 1057.74 1633.18 1068.97C1579.18 1074.7 1526.67 1079.92 1476.7 1044.64C1421.45 1005.64 1375.19 943.067 1329.57 884.799C1283.94 826.544 1237.68 763.974 1182.44 724.957C1126.67 685.584 1071.71 693.145 1015.41 726.593C943.113 769.529 878.564 836.638 812.744 896.397C747.198 955.893 676.068 1021.14 596.543 1026.42" stroke="#B7B7B7" stroke-miterlimit="10"/>
<path d="M1949.25 1052.4C1842.96 1053.55 1739.26 1083.67 1633.59 1094.89C1579.53 1100.63 1527.23 1105.72 1477.2 1070.41C1421.89 1031.37 1375.42 969.061 1329.57 911.004C1283.71 852.947 1237.24 790.641 1181.93 751.598C1126.14 712.211 1071.13 719.403 1014.74 752.957C942.745 795.8 878.664 863.16 813.301 923.091C747.893 983.048 677 1048.16 597.375 1053.19" stroke="#B7B7B7" stroke-miterlimit="10"/>
<path d="M1949.25 1078.42C1843.19 1079.61 1739.71 1109.55 1634.26 1120.72C1580.16 1126.45 1528.03 1131.4 1477.93 1096.18C1422.49 1057.2 1375.72 995.212 1329.56 937.406C1283.39 879.6 1236.62 817.61 1181.18 778.633C1125.36 739.379 1070.35 746.147 1013.95 779.887C942.407 822.69 878.976 890.353 814.226 950.482C749.147 1010.91 678.685 1075.95 599.133 1080.81" stroke="#B7B7B7" stroke-miterlimit="10"/>
<path d="M1949.24 1104.45C1843.49 1105.68 1740.32 1135.39 1635.19 1146.49C1581.04 1152.2 1529.04 1156.99 1478.86 1121.96C1423.22 1083.12 1376.08 1021.51 1329.53 964.007C1282.98 906.504 1235.85 844.898 1180.2 806.052C1124.36 767.062 1069.4 773.329 1013.04 807.345C942.088 850.163 879.463 918.169 815.473 978.535C750.906 1039.44 681.049 1104.49 601.707 1109.22" stroke="#B7B7B7" stroke-miterlimit="10"/>
<path d="M1949.24 1130.47C1843.11 1131.71 1739.55 1161.64 1634.02 1172.43C1583.16 1177.63 1533.72 1182.66 1486.14 1151.87C1427.56 1113.97 1378.09 1049.88 1329.51 990.753C1280.94 931.64 1231.47 867.54 1172.89 829.631C1119.98 795.391 1067.93 801.883 1014.94 833.484C944.111 875.734 882.016 944.585 818.686 1005.54C754.33 1067.51 684.719 1133.55 605.066 1138.28" stroke="#B7B7B7" stroke-miterlimit="10"/>
<rect x="1919" y="1354.13" width="1384" height="1354.13" transform="rotate(-180 1919 1354.13)" fill="url(#paint0_linear_2_142)"/>
</g>
<defs>
<linearGradient id="paint0_linear_2_142" x1="1919" y1="2114.59" x2="3303" y2="2114.59" gradientUnits="userSpaceOnUse">
<stop stop-color="#FAFAFA" stop-opacity="0.08"/>
<stop offset="0.377694" stop-color="#FAFAFA" stop-opacity="0.83"/>
<stop offset="1" stop-color="#FAFAFA"/>
</linearGradient>
</defs>
</svg>
