<svg width="1385" height="940" viewBox="0 0 1385 940" fill="none" xmlns="http://www.w3.org/2000/svg">
<path d="M42 -300.898C45.3139 -197.781 84.8703 -105.47 122.797 -21.0102C160.331 62.5788 201.709 142.896 235.443 229.928C259.226 291.284 281.938 360.676 280.95 432.6C280.144 491.304 263.153 545.812 241.311 594.342C194.193 699.017 124.317 780.877 84.5591 892.716C40.9655 1015.35 69.976 1158.12 93.86 1283.32C124.747 1445.22 169.952 1608.86 172.533 1778.58" stroke="#1E1E1E" stroke-miterlimit="10"/>
<path d="M78.4414 -297.454C82.0757 -194.324 120.9 -102.633 159.083 -18.2657C196.351 64.0831 237.509 143.08 270.932 228.926C294.798 290.229 317.611 360.161 316.476 432.112C315.542 490.882 298.698 545.825 276.709 594.342C230.296 696.747 161.015 775.784 121.953 885.433C78.2034 1008.25 107.827 1151.31 130.723 1277.12C160.264 1439.42 202.127 1602.57 206.759 1771.65" stroke="#1E1E1E" stroke-miterlimit="10"/>
<path d="M96.8711 -293.51C100.496 -193.415 137.05 -104.627 174.107 -22.5287C212.501 62.5381 255.527 143.567 289.884 232.315C312.907 291.784 334.622 359.342 334.045 428.931C333.56 487.859 316.789 543.449 294.8 592.058C248.808 693.724 179.252 770.861 140.666 879.876C97.8506 1000.81 126.861 1142.19 148.521 1266.39C177.055 1429.99 217.426 1593.93 222.653 1763.72" stroke="#1E1E1E" stroke-miterlimit="10"/>
<path d="M115.418 -288.257C119.116 -187.898 155.743 -99.2815 193.149 -17.1835C230.425 64.6242 271.904 142.671 305.529 227.857C329.083 287.537 351.2 355.292 351.182 425.423C351.164 486.805 333.679 544.427 310.234 594.54C264.627 692.024 196.774 766.416 159.561 872.344C117.112 993.182 147.01 1138.03 167.836 1262.14C194.979 1423.83 232.385 1585.89 237.822 1753.16" stroke="#1E1E1E" stroke-miterlimit="10"/>
<path d="M134.074 -281.845C137.846 -180.549 175.022 -91.7481 213.105 -9.25423C250.656 72.0785 292.584 149.677 325.64 235.166C348.023 293.065 368.767 358.551 368.337 426.253C367.962 485.419 351.264 541.417 328.634 589.763C284.162 684.792 217.517 756.004 180.387 858.541C136.509 979.709 166.582 1126.86 186.52 1252.29C212.098 1413.24 246.903 1574.36 252.35 1740.2" stroke="#1E1E1E" stroke-miterlimit="10"/>
<path d="M152.832 -274.39C156.595 -173.212 193.826 -84.8335 232.155 -2.77506C268.526 75.0742 308.842 149.427 341.176 231.063C364.849 290.849 386.582 359.224 385.126 429.618C383.955 486.079 368.291 539.135 346.54 585.291C302.654 678.393 236.037 746.861 199.712 847.761C157.089 966.171 186.099 1111.86 204.317 1234.92C228.301 1396.94 261.029 1558.89 266.329 1725.19" stroke="#1E1E1E" stroke-miterlimit="10"/>
<path d="M171.668 -266.051C175.311 -167.736 210.693 -82.2868 248.071 -2.56388C284.552 75.2458 325.344 149.137 357.934 230.628C381.085 288.513 402.36 354.514 401.985 422.797C401.674 479.482 386.734 533.079 364.855 579.406C321.481 671.242 254.241 736.859 218.795 836.942C177.6 953.254 206.327 1100.47 222.924 1221.45C245.014 1382.55 274.884 1543.62 279.8 1708.37" stroke="#1E1E1E" stroke-miterlimit="10"/>
<path d="M190.582 -256.947C194.601 -147.575 237.911 -54.3011 280.543 32.5734C321.784 116.611 368.252 198.498 397.336 293.303C420.185 367.814 426.346 447.18 402.865 523.024C383.933 584.182 350.556 632.594 318.543 679.805C286.53 727.016 253.153 775.427 234.221 836.585C211.061 911.426 219.162 993.049 226.449 1071.73C245.573 1278.24 287.253 1481.05 292.865 1689.96" stroke="#1E1E1E" stroke-miterlimit="10"/>
<path d="M209.562 -247.209C213.536 -137.429 257.459 -44.6295 300.668 41.9811C340.92 122.654 385.978 201.48 414.11 292.986C436.3 365.148 442.946 442.945 420.71 516.901C402.502 577.452 369.198 624.505 337.231 670.251C305.263 715.984 271.959 763.037 253.751 823.601C231.094 898.943 240.321 983.76 247.068 1062.69C264.398 1265.5 300.86 1465.53 305.593 1670.35" stroke="#1E1E1E" stroke-miterlimit="10"/>
<path d="M228.574 -236.983C235.989 -28.1225 374.863 111.505 430.952 292.682C452.502 362.285 459.331 438.96 438.468 510.568C421.019 570.472 387.862 616.034 355.94 660.171C324.019 704.307 290.852 749.882 273.413 809.773C252.724 880.801 260.926 960.972 266.281 1035.3C281.057 1240.4 314.178 1443.06 318.032 1649.67" stroke="#1E1E1E" stroke-miterlimit="10"/>
<path d="M247.625 -226.402C254.765 -20.6816 392.421 114.605 447.632 292.391C469.145 361.69 475.974 438.748 454.415 509.881C437.287 566.394 405.521 608.684 374.68 649.759C342.813 692.194 309.83 736.172 293.196 795.39C273.138 866.813 282.11 950.337 286.834 1024.91C299.586 1226.2 327.507 1425.85 330.29 1628.34" stroke="#1E1E1E" stroke-miterlimit="10"/>
<path d="M266.695 -215.594C273.561 -12.6055 409.697 117.244 464.413 292.128C485.881 360.741 492.591 438.907 470.428 509.117C453.703 562.107 423.081 601.269 393.421 639.138C363.778 677.007 333.138 716.196 316.413 769.16C294.442 838.775 302.608 922.338 306.288 996.255C316.404 1199.86 340.663 1402.11 342.412 1606.53" stroke="#1E1E1E" stroke-miterlimit="10"/>
<path d="M285.77 -204.708C292.342 -4.74112 427.133 120.121 481.052 291.851C501.796 357.931 508.91 434.593 488.138 502.599C472.164 554.916 441.771 592.31 412.174 628.424C382.587 664.525 352.185 701.959 336.211 754.25C314.688 824.71 323.706 911.176 326.681 985.542C334.673 1185.3 353.851 1384.25 354.492 1584.56" stroke="#1E1E1E" stroke-miterlimit="10"/>
<path d="M304.848 -193.876C311.155 3.16142 444.481 122.983 497.842 291.573C518 355.251 525.077 430.105 505.816 496.172C490.747 547.856 460.419 583.561 430.932 617.775C401.381 652.055 371.245 687.707 356.049 739.378C336.577 805.563 344.486 886.566 346.354 956.591C351.746 1158.7 367.034 1360.3 366.604 1562.69" stroke="#1E1E1E" stroke-miterlimit="10"/>
<path d="M323.91 -183.214C329.961 11.0001 461.904 125.663 514.515 291.297C534.536 354.315 541.869 430.146 521.802 495.275C506.88 543.674 478.145 576.041 449.683 607.286C420.133 639.732 390.307 673.577 375.898 724.706C357.196 791.103 365.371 876.697 366.524 946.55C369.801 1144.79 380.265 1342.82 378.828 1541.19" stroke="#1E1E1E" stroke-miterlimit="10"/>
<path d="M342.934 -172.883C348.756 18.5736 479.271 128.381 531.351 290.993C551.234 353.075 558.768 430.753 537.887 494.549C523.176 539.504 495.667 568.915 468.395 597.126C441.152 625.31 413.514 654.668 398.904 699.702C377.83 764.647 386.051 848.632 386.344 918.247C387.195 1118.95 393.631 1319.61 391.214 1520.34" stroke="#1E1E1E" stroke-miterlimit="10"/>
<path d="M361.918 -163.013C367.548 25.897 496.717 130.743 548.101 290.69C567.381 350.7 575.089 426.385 555.654 488.652C541.757 533.197 514.321 560.999 487.096 587.401C459.871 613.804 432.435 641.619 418.538 686.151C409.045 716.565 407.974 748.352 407.562 781.18C407.022 824.09 406.464 866.999 406.207 909.922C405.063 1106.74 407.068 1303.6 403.864 1500.39" stroke="#1E1E1E" stroke-miterlimit="10"/>
<path d="M380.852 -153.724C386.344 32.9033 514.095 132.959 565.067 290.334C583.852 348.338 591.477 422.532 573.425 483.057C560.206 527.392 533.072 553.557 505.746 578.271C478.521 602.892 451.121 629.189 438.067 673.484C419.749 735.619 427.173 817.189 426.093 883.242C422.834 1082.71 420.765 1282.21 416.819 1481.65" stroke="#1E1E1E" stroke-miterlimit="10"/>
<path d="M399.711 -145.161C405.121 39.3686 531.608 134.872 581.958 289.977C600.715 347.757 608.506 422.836 589.611 482.898C576.493 524.594 550.641 547.513 524.358 569.852C496.867 593.22 470.1 617.419 457.494 661.925C449.96 688.539 449.227 716.525 448.797 744.802C448.12 789.084 446.728 833.379 445.584 877.647C440.558 1073.23 434.571 1268.77 430.177 1464.38" stroke="#1E1E1E" stroke-miterlimit="10"/>
<path d="M418.492 -137.455C423.774 43.6308 546.847 135.137 597.81 285.689C617.245 343.1 625.584 419.089 607.175 479.442C594.716 520.266 568.918 541.946 542.91 562.292C516.839 582.691 491.252 604.37 478.646 645.142C469.858 673.55 469.537 703.872 468.961 734.418C468.183 775.85 466.718 817.281 465.308 858.673C458.616 1055.43 448.748 1251.97 444.015 1448.86" stroke="#1E1E1E" stroke-miterlimit="10"/>
<path d="M437.176 -130.752C442.614 52.2601 568.789 139.042 617.5 292.933C635.068 348.417 642.144 422.955 623.506 479.982C610.964 518.366 586.558 537.485 561.383 555.694C534.982 574.787 509.716 595.186 497.65 636.354C489.823 663.087 489.448 691.574 488.972 720.062C488.267 762.246 486.491 804.442 484.752 846.56C476.659 1042.89 463.174 1238.74 458.378 1435.33" stroke="#1E1E1E" stroke-miterlimit="10"/>
<path d="M455.762 -125.183C461.227 55.0443 584.153 138.488 633.459 288.553C651.74 344.182 659.632 419.498 641.259 477.489C629.211 515.503 604.769 533.369 579.814 550.218C554.703 567.161 530.673 584.974 518.369 622.948C509.123 651.462 509.16 682.813 508.565 713.596C507.741 756.321 505.91 799.033 503.868 841.665C494.558 1035.91 477.952 1229.41 473.412 1424.1" stroke="#1E1E1E" stroke-miterlimit="10"/>
<path d="M474.219 -120.882C479.803 56.9439 599.461 137.577 649.664 284.066C669.081 340.724 678.198 421.437 657.445 480.325C645.123 515.292 621.963 531.231 598.143 545.983C572.94 561.592 549.102 578.627 537.293 616.667C528.138 646.171 528.386 677.759 527.809 709.374C527.077 749.196 525.328 789.004 523.268 828.734C513.153 1024.45 493.141 1219.08 489.086 1415.43" stroke="#1E1E1E" stroke-miterlimit="10"/>
<path d="M492.555 -117.979C498.34 59.5311 617.119 137.473 667.24 283.394C686.712 340.079 695.811 421.2 674.976 480.102C662.8 514.527 640.051 529.464 616.387 543.133C591.331 557.621 567.923 573.64 556.27 611.153C547.097 640.669 547.243 672.548 546.767 704.202C546.172 744.037 544.442 783.859 542.273 823.576C531.617 1019.12 508.74 1213.23 505.554 1409.57" stroke="#1E1E1E" stroke-miterlimit="10"/>
<path d="M510.734 -116.606C516.932 62.8037 637.13 138.067 686.271 286.521C704.507 341.61 712.197 416.754 694.583 474.481C682.966 512.562 659.915 527.775 634.521 541.814C609.236 555.788 585.874 571.133 574.459 609.147C566.238 636.527 565.624 666.598 565.341 695.93C564.956 736.002 563.519 776.022 561.359 815.989C550.684 1013.25 524.823 1208.65 522.855 1406.85" stroke="#1E1E1E" stroke-miterlimit="10"/>
<path d="M528.762 -116.923C534.721 60.6263 653.006 137.117 703.118 282.932C722.69 339.881 731.679 421.095 710.716 480.221C698.604 514.369 676.167 528.936 652.603 542.17C627.63 556.196 604.552 571.859 592.953 609.094C583.753 638.637 583.67 670.793 583.341 702.527C582.92 742.441 581.317 782.329 579.111 822.124C568.291 1017.46 542.997 1211.04 541.02 1407.34" stroke="#1E1E1E" stroke-miterlimit="10"/>
<path d="M546.629 -118.864C552.323 58.712 671.413 137.577 721.552 283.657C741.051 340.46 749.949 420.936 729.141 479.929C716.975 514.434 694.318 529.991 670.745 544.32C645.781 559.494 622.474 576.159 610.811 613.711C601.666 643.149 601.629 674.922 601.226 706.524C600.713 746.464 599.066 786.392 596.896 826.214C586.259 1021.23 562.402 1214.66 559.83 1410.56" stroke="#1E1E1E" stroke-miterlimit="10"/>
<path d="M564.359 -122.307C569.889 55.7305 689.895 137.485 740.153 284.291C759.67 341.305 768.412 421.134 747.751 480.365C735.502 515.464 712.616 532.366 688.97 548.121C663.951 564.773 640.387 582.797 628.642 620.916C619.552 650.407 619.497 681.929 619.048 713.544C618.481 753.484 616.833 793.386 614.736 833.207C604.465 1027.76 582.192 1220.88 579.235 1416.21" stroke="#1E1E1E" stroke-miterlimit="10"/>
<path d="M581.977 -127.084C587.433 53.5134 710.725 138.237 760.132 288.777C778.55 344.907 785.984 419.247 767.757 477.752C755.866 515.925 731.927 535.176 707.265 553.438C682.465 571.805 658.92 590.99 646.772 629.123C637.663 657.703 637.352 688.988 636.848 719.824C636.144 762.628 634.542 805.379 632.354 848.078C622.513 1040.27 602.309 1231.29 599.187 1424.16" stroke="#1E1E1E" stroke-miterlimit="10"/>
<path d="M599.457 -133.087C604.913 50.4529 731.492 138.647 780.331 293.145C798.081 349.302 804.554 422.757 786.226 480.537C773.968 519.185 750.313 540.072 725.596 560.102C699.68 581.108 675.183 603.341 663.373 644.694C655.73 671.492 654.96 700.033 654.585 728.56C654.036 770.757 652.461 812.927 650.493 855.032C641.467 1048.22 622.773 1240.37 619.588 1434.1" stroke="#1E1E1E" stroke-miterlimit="10"/>
<path d="M616.855 -140.173C622.183 41.5456 745.686 134.569 796.786 285.847C816.468 344.115 824.076 418.904 806.133 480.233C794.086 521.401 769.35 545.31 744.002 567.965C718.598 590.673 694.055 614.582 681.87 655.697C673.384 684.343 672.67 714.718 672.176 745.409C671.517 786.722 670.208 827.995 668.441 869.242C660.22 1061.58 643.504 1253.09 640.428 1445.87" stroke="#1E1E1E" stroke-miterlimit="10"/>
<path d="M634.156 -148.209C639.631 37.0723 766.566 134.199 817.081 290.148C836.131 348.971 843.034 422.743 824.862 484.033C812.357 526.23 787.823 551.788 762.438 576.885C735.881 603.129 710.504 630.073 698.457 674.988C691.262 701.826 690.154 729.997 689.815 758.419C689.284 802.384 687.92 846.335 686.218 890.248C678.857 1079.99 664.476 1269.11 661.647 1459.19" stroke="#1E1E1E" stroke-miterlimit="10"/>
<path d="M651.375 -157.049C656.959 30.436 785.167 132.181 836.332 290.492C855.437 349.618 862.092 422.533 844.955 484.429C832.505 529.384 807.074 558.69 780.92 586.702C754.848 614.622 729.188 644.06 716.884 688.975C699.509 752.402 706.705 831.307 704.544 898.231C698.347 1090.19 685.723 1281.65 683.187 1473.85" stroke="#1E1E1E" stroke-miterlimit="10"/>
<path d="M668.535 -166.576C674.275 21.6478 801.778 128.42 854.316 286.942C875.353 350.409 882.42 428.457 862.353 494.51C849.134 538 824.39 568.057 799.435 597.271C773.308 627.856 747.795 659.3 734.987 705.56C716.761 771.363 724.277 852.524 722.391 922.047C717.246 1111.3 707.094 1300.24 704.988 1489.65" stroke="#1E1E1E" stroke-miterlimit="10"/>
<path d="M685.648 -176.63C691.69 17.5706 824.677 128.842 876.134 295.084C895.414 357.363 900.723 431.109 882.533 495.341C869.25 542.235 843.783 575.737 817.976 608.46C791.117 642.502 764.679 677.627 751.844 727.134C735.449 790.377 741.948 866.722 740.603 932.973C736.712 1124.14 728.665 1315.11 727.008 1506.37" stroke="#1E1E1E" stroke-miterlimit="10"/>
<path d="M702.719 -187.107C708.898 6.53939 839.258 123.142 892.994 287.536C914.278 352.639 920.824 427.915 902.826 496.357C889.607 546.616 863.032 583.904 836.529 620.084C810 656.291 783.562 693.592 770.233 743.812C752.299 811.382 759.467 892.042 758.424 963.07C755.686 1149.97 750.285 1336.79 749.159 1523.74" stroke="#1E1E1E" stroke-miterlimit="10"/>
<path d="M719.766 -197.834C726.311 2.04029 862.044 123.419 914.865 295.664C934.905 361.018 939.793 435.7 921.557 503.152C907.743 554.269 881.369 593.655 855.096 632.026C828.841 670.383 802.449 709.796 788.635 760.899C770.527 827.876 777.063 905.422 776.523 975.737C775.077 1164.36 772.019 1352.94 771.433 1541.57" stroke="#1E1E1E" stroke-miterlimit="10"/>
<path d="M736.805 -208.707C743.515 -9.24134 876.786 117.481 931.795 288.077C954.388 358.154 960.448 437.139 940.299 510.066C925.908 562.159 899.745 603.551 873.691 644.086C847.656 684.594 821.383 725.973 807.083 778.105C787.658 848.935 794.597 931.64 794.514 1006.19C794.313 1190.65 793.81 1375.13 793.791 1559.59" stroke="#1E1E1E" stroke-miterlimit="10"/>
<path d="M753.828 -219.579C760.932 -15.4292 897.526 116.123 952.379 292.313C973.956 361.612 979.302 437.574 960.984 509.631C946.639 566.052 919.332 611.627 892.253 656.173C865.174 700.705 837.857 746.32 823.521 802.714C805.157 874.929 812.105 956.803 812.554 1032.16C813.634 1214 815.575 1395.82 816.097 1577.67" stroke="#1E1E1E" stroke-miterlimit="10"/>
<path d="M770.887 -230.32C778.265 -23.1481 916.186 113.286 971.836 292.59C994.182 364.581 998.998 441.929 979.709 516.611C964.888 574.009 937.663 621.576 910.831 668.101C883.999 714.626 856.765 762.206 841.953 819.59C823.507 891.04 829.576 970.46 830.519 1045.21C832.826 1228.64 837.33 1412.01 838.383 1595.48" stroke="#1E1E1E" stroke-miterlimit="10"/>
<path d="M787.949 -240.782C795.584 -30.972 935.007 110.766 991.123 292.881C1013.44 365.307 1018.42 441.877 999.921 517.258C984.926 578.364 956.986 629.52 929.386 679.739C900.851 731.648 871.868 784.757 857.303 848.501C840.844 920.557 847.188 999.726 848.671 1074.32C852.241 1253.86 859.024 1433.24 860.544 1612.88" stroke="#1E1E1E" stroke-miterlimit="10"/>
<path d="M805.07 -250.851C809.217 -138.682 854.688 -43.9435 898.766 44.5407C938.533 124.382 982.703 202.72 1010.51 293.183C1032.81 365.755 1037.8 442.034 1020.15 517.666C1005.07 582.334 976.213 637.172 947.935 690.901C919.657 744.63 890.802 799.468 875.715 864.135C859.018 935.704 864.602 1012.25 866.515 1086.39C871.184 1267.5 880.604 1448.3 882.572 1629.55" stroke="#1E1E1E" stroke-miterlimit="10"/>
<path d="M822.227 -260.364C826.41 -148.683 871.221 -53.496 914.687 35.173C955.451 118.34 1001.03 199.686 1029.69 293.501C1052.63 368.592 1057.33 446.006 1038.75 524.172C1023.17 589.684 994.477 646.092 966.437 701.484C938.397 756.876 909.707 813.283 894.126 878.795C876.174 954.283 882.143 1035 884.724 1113.27C890.583 1290.7 902.053 1467.68 904.351 1645.36" stroke="#1E1E1E" stroke-miterlimit="10"/>
<path d="M839.453 -269.205C843.701 -157.182 888.484 -61.0706 931.721 28.3241C973.694 115.106 1021 200.015 1050.15 297.92C1071.95 371.138 1076.19 446.243 1059.16 522.258C1043.57 591.861 1013.82 652.108 984.927 711.313C956.035 770.531 926.283 830.765 910.693 900.381C894.728 971.633 899.57 1045.88 902.308 1119.45C909.009 1299.79 923.281 1479.4 925.899 1660.05" stroke="#1E1E1E" stroke-miterlimit="10"/>
<path d="M856.754 -277.24C860.974 -165.942 905.089 -69.7389 947.667 19.5635C989.484 107.256 1036.47 192.626 1066.8 290.321C1090.93 368.025 1096.2 446.771 1077.58 528.117C1061.52 598.287 1031.99 659.735 1003.36 720.234C974.737 780.732 945.204 842.18 929.147 912.35C911.983 987.349 917.155 1065.7 920.551 1143.19C928.296 1320.08 944.362 1496.03 947.108 1673.37" stroke="#1E1E1E" stroke-miterlimit="10"/>
<path d="M874.141 -284.325C877.949 -183.847 914.466 -95.7191 952.073 -13.6606C989.276 67.5137 1030.76 144.888 1064.1 229.651C1087.5 289.186 1109.03 356.176 1109.04 426.016C1109.06 485.459 1095.79 543.437 1077.51 596.084C1040.47 702.79 982.273 792.607 952.192 904.605C921.616 1018.41 937.078 1148.68 944.877 1267.04C954.059 1406.27 965.731 1545.17 967.946 1685.13" stroke="#1E1E1E" stroke-miterlimit="10"/>
<path d="M891.633 -290.33C895.395 -190.023 931.839 -101.645 969.107 -19.4676C1007.48 65.1374 1050.52 145.678 1084.67 234.15C1107.71 293.83 1128.23 360.226 1127.92 429.789C1127.65 489.284 1114.08 547.196 1095.94 600.028C1058.69 708.568 1000.96 800.972 970.407 914.526C939.849 1028.12 954.524 1155.94 963.001 1274C973.071 1414.21 986.189 1553.97 988.359 1695.08" stroke="#1E1E1E" stroke-miterlimit="10"/>
<path d="M909.234 -295.119C913.043 -191.619 951.821 -100.034 990.279 -15.4293C1027.5 66.4576 1068.65 144.98 1101.88 230.522C1125.81 292.115 1147.67 361.177 1146.77 433.247C1146.03 492.663 1132.23 550.298 1114.22 603.116C1076.78 713.003 1019.49 807.609 988.604 922.338C957.542 1037.7 972.244 1166.45 981.555 1286.25C992.339 1424.98 1006.34 1563.2 1008.3 1702.99" stroke="#1E1E1E" stroke-miterlimit="10"/>
<path d="M926.969 -298.549C930.685 -194.772 969.867 -102.633 1008.26 -17.7111C1045.67 65.0203 1086.97 144.427 1120.4 230.773C1144.3 292.499 1166.28 361.613 1165.38 433.788C1164.64 493.389 1150.68 551.183 1132.76 604.252C1095.04 716.012 1037.66 812.862 1006.46 929.385C975.524 1044.88 989.887 1173.19 999.747 1292.98C1011.13 1431.35 1026.07 1569.09 1027.71 1708.68" stroke="#1E1E1E" stroke-miterlimit="10"/>
<path d="M944.84 -300.502C948.355 -197.464 987.326 -105.787 1025.27 -21.327C1063.73 64.2677 1106.49 146.287 1140.53 235.879C1163.01 295.058 1183.8 360.662 1183.79 429.486C1183.79 490.961 1169.21 550.773 1150.8 605.465C1113.02 717.727 1056.26 815.645 1024.75 932.472C993.313 1049.03 1007.59 1178.83 1018.03 1299.75C1029.87 1436.91 1045.35 1573.37 1046.54 1711.9" stroke="#1E1E1E" stroke-miterlimit="10"/>
<path d="M962.863 -300.898C966.635 -198.018 1005.62 -106.315 1043.38 -21.8019C1081.74 64.083 1124.37 146.458 1158.38 236.262C1180.7 295.216 1201.79 360.94 1201.79 429.513C1201.79 490.684 1186.92 550.417 1168.69 604.859C1130.9 717.74 1074.48 816.701 1042.86 934.029C1011.46 1050.51 1025.37 1179.77 1035.97 1300.59C1047.99 1437.69 1063.81 1574 1064.69 1712.54" stroke="#1E1E1E" stroke-miterlimit="10"/>
<path d="M980.934 -300.898C985.731 -198.295 1023.87 -106.79 1061.25 -21.8679C1098.97 63.8455 1140.8 146.181 1174.3 235.629C1196.26 294.253 1218.05 360.874 1218.08 428.985C1218.1 489.787 1202.63 550.127 1184.73 604.291C1147.45 717.107 1092.23 816.675 1060.88 933.726C1029.52 1050.8 1043.11 1178.82 1053.57 1300.24C1065.4 1437.36 1080.87 1573.77 1082 1712.26" stroke="#1E1E1E" stroke-miterlimit="10"/>
<path d="M998.996 -300.898C1004.5 -198.744 1041.56 -107.436 1078.34 -22.145C1115.18 63.3177 1156 145.574 1188.77 234.586C1210.27 293.013 1232.33 360.227 1232.36 427.89C1232.4 488.388 1216.65 549.163 1199.16 603.222C1162.67 715.998 1108.87 816.252 1078.07 933.013C1047.05 1050.63 1060.27 1177.67 1070.53 1299.55C1082.08 1436.74 1097.13 1573.24 1098.44 1711.72" stroke="#1E1E1E" stroke-miterlimit="10"/>
<path d="M1017.07 -300.886C1022.98 -199.339 1058.77 -108.229 1094.72 -22.6344C1130.49 62.5248 1170.11 144.636 1201.91 233.147C1222.89 291.507 1244.79 359.025 1244.85 426.252C1244.89 486.487 1229.18 547.552 1212.16 601.651C1176.68 714.4 1124.53 815.407 1094.55 931.89C1064.15 1050.01 1076.95 1176.28 1086.93 1298.52C1098.15 1435.79 1112.72 1572.42 1114.13 1710.88" stroke="#1E1E1E" stroke-miterlimit="10"/>
<path d="M1035.12 -300.886C1041.25 -199.286 1076.07 -107.648 1111.32 -21.2093C1145 61.3769 1182.04 141.324 1212.27 226.76C1233.78 287.575 1256.57 358.801 1255.53 428.641C1254.66 486.988 1240.16 545.679 1224.16 598.55C1189.78 712.184 1138.91 814.694 1109.97 931.877C1081.03 1049.07 1093.11 1173.32 1102.59 1294.3C1113.43 1432.63 1127.65 1570.36 1129.12 1709.8" stroke="#1E1E1E" stroke-miterlimit="10"/>
<path d="M1053.18 -300.886C1059.24 -200.118 1092.42 -108.73 1126.47 -22.0538C1158.74 60.1233 1194.29 139.833 1223.21 224.689C1243.99 285.662 1265.91 356.716 1264.9 426.107C1264.05 484.31 1250.07 543.026 1234.66 596.162C1201.71 709.809 1152.9 813.19 1125.19 930.109C1097.32 1047.7 1108.92 1171.61 1118.01 1292.73C1128.4 1431.17 1142 1569.07 1143.47 1708.54" stroke="#1E1E1E" stroke-miterlimit="10"/>
<path d="M1071.23 -300.886C1082.38 -109.007 1178.02 53.1698 1233.2 222.327C1253.17 283.551 1273.92 354.209 1272.96 423.178C1272.16 481.275 1258.86 539.939 1244.12 593.417C1212.78 707.091 1166.19 811.369 1139.87 928.038C1113.26 1046.01 1124.34 1169.73 1132.99 1290.91C1142.89 1429.48 1155.83 1567.55 1157.25 1707.05" stroke="#1E1E1E" stroke-miterlimit="10"/>
<path d="M1089.29 -300.886C1099.59 -111.158 1190 50.7419 1242.38 219.728C1261.46 281.281 1280.82 351.346 1279.93 419.932C1279.17 477.95 1266.71 536.508 1252.7 590.369C1223.12 704.095 1178.91 809.284 1154.13 925.715C1128.94 1044.05 1139.48 1167.67 1147.65 1288.88C1157.01 1427.58 1169.26 1565.85 1170.59 1705.38" stroke="#1E1E1E" stroke-miterlimit="10"/>
<path d="M1107.34 -300.898C1116.56 -113.466 1201.56 48.1962 1250.9 216.931C1269.01 278.854 1286.79 348.206 1285.97 416.41C1285.28 474.375 1273.76 532.788 1260.54 587.085C1232.84 700.877 1191.13 807.002 1168.01 923.209C1144.4 1041.87 1154.36 1165.5 1162.02 1286.69C1170.8 1425.53 1182.32 1564 1183.51 1703.59" stroke="#1E1E1E" stroke-miterlimit="10"/>
<path d="M1125.39 -300.898C1133.33 -115.854 1212.77 45.6104 1258.85 213.976C1275.91 276.308 1291.97 344.829 1291.23 412.663C1290.61 470.602 1280.13 528.83 1267.75 583.589C1242.02 697.46 1202.94 804.536 1181.56 920.531C1159.64 1039.51 1169 1163.21 1176.13 1284.35C1184.32 1423.36 1195.07 1562.02 1196.12 1701.68" stroke="#1E1E1E" stroke-miterlimit="10"/>
<path d="M1143.43 -300.898C1149.96 -118.322 1223.73 42.9846 1266.37 210.902C1282.3 273.643 1296.54 341.279 1295.9 408.758C1295.35 466.696 1285.96 524.713 1274.48 579.947C1250.79 693.91 1214.43 801.91 1194.86 917.734C1174.71 1037.01 1183.47 1160.82 1190.04 1281.92C1197.6 1421.09 1207.57 1559.96 1208.44 1699.68" stroke="#1E1E1E" stroke-miterlimit="10"/>
<path d="M1161.48 -300.898C1166.56 -119.589 1235.46 42.6676 1274.43 211.324C1288.58 272.574 1300.36 337.136 1300.14 402.147C1299.94 460.573 1291.71 518.894 1281.13 575.064C1259.46 690.057 1225.53 799.759 1207.81 916.374C1189.86 1034.49 1197.79 1156.9 1203.69 1276.47C1210.62 1416.8 1219.93 1556.85 1220.61 1697.64" stroke="#1E1E1E" stroke-miterlimit="10"/>
<path d="M1179.54 -300.898C1183.07 -122.082 1246.11 40.0289 1281.41 208.078C1307.24 331.053 1308.48 446.692 1287.34 571.225C1267.79 686.323 1236.74 796.948 1220.9 913.419C1204.78 1031.84 1212.09 1154.33 1217.43 1273.91C1223.71 1414.41 1232.21 1554.67 1232.69 1695.54" stroke="#1E1E1E" stroke-miterlimit="10"/>
<path d="M1197.57 -300.912C1199.59 -124.563 1256.73 37.4293 1288.32 204.818C1311.34 326.765 1312.11 444.159 1293.48 567.372C1276.06 682.602 1247.91 794.085 1233.94 910.45C1219.67 1029.18 1226.35 1151.7 1231.13 1271.33C1236.76 1411.98 1244.44 1552.46 1244.71 1693.43" stroke="#1E1E1E" stroke-miterlimit="10"/>
<path d="M1215.62 -300.912C1216.17 -126.965 1267.45 34.9221 1295.33 201.586C1315.56 322.569 1315.91 441.559 1299.71 563.558C1284.39 678.92 1259.16 791.235 1247.03 907.52C1234.59 1026.55 1240.65 1149.08 1244.88 1268.78C1249.86 1409.6 1256.72 1550.27 1256.8 1691.34" stroke="#1E1E1E" stroke-miterlimit="10"/>
<path d="M1233.67 -300.912C1232.87 -129.247 1278.35 32.5341 1302.54 198.419C1320.07 318.571 1320.07 438.894 1306.19 559.825C1292.93 675.332 1270.6 788.411 1260.24 904.657C1249.6 1023.99 1255.02 1146.47 1258.72 1266.3C1263.07 1407.27 1269.12 1548.14 1269.01 1689.31" stroke="#1E1E1E" stroke-miterlimit="10"/>
<path d="M1251.71 -300.912C1249.7 -131.411 1289.47 30.2646 1310.08 195.345C1325 314.837 1324.7 436.137 1313.01 556.209C1301.75 671.875 1282.27 785.654 1273.63 901.887C1264.73 1021.54 1269.53 1143.89 1272.7 1263.89C1276.42 1405.02 1281.69 1546.06 1281.4 1687.33" stroke="#1E1E1E" stroke-miterlimit="10"/>
<path d="M1269.77 -300.912C1266.74 -133.391 1300.94 28.1399 1318.1 192.415C1330.54 311.445 1330.01 433.326 1320.36 552.765C1311.01 668.589 1294.31 783.014 1287.29 899.26C1280.04 1019.21 1284.22 1141.41 1286.89 1261.59C1290.02 1402.87 1294.52 1544.08 1294.08 1685.46" stroke="#1E1E1E" stroke-miterlimit="10"/>
<path d="M1287.82 -300.912C1284.04 -136.65 1312.3 23.3373 1326.33 185.317C1336.71 305.178 1336.23 428.18 1328.43 548.371C1320.84 665.277 1306.66 781.154 1301.18 898.363C1289 1159.03 1308.13 1422.7 1307.11 1683.72" stroke="#1E1E1E" stroke-miterlimit="10"/>
<path d="M1305.87 -300.912C1301.55 -138.193 1324.74 21.5692 1335.73 182.796C1343.9 302.592 1343.26 425.409 1337.19 545.416C1331.26 662.48 1319.68 778.858 1315.57 896.133C1306.42 1157.47 1321.73 1420.56 1320.54 1682.12" stroke="#1E1E1E" stroke-miterlimit="10"/>
<path d="M1323.93 -300.912C1319.37 -139.513 1337.76 20.0119 1345.99 180.513C1358.25 419.669 1336.33 655.605 1330.44 894.141C1323.98 1155.98 1335.75 1418.73 1334.49 1680.68" stroke="#1E1E1E" stroke-miterlimit="10"/>
<path d="M1341.99 -300.912C1337.51 -140.595 1351.43 18.6661 1357.21 178.508C1365.83 417.096 1349.63 654.141 1345.85 892.426C1341.68 1154.59 1350.25 1417.18 1349.01 1679.43" stroke="#1E1E1E" stroke-miterlimit="10"/>
<path d="M1360.05 -300.912C1356.03 -141.426 1365.83 17.5445 1369.52 176.832C1375.04 415.143 1363.96 652.861 1361.85 891.053C1359.53 1153.44 1365.28 1415.99 1364.16 1678.43" stroke="#1E1E1E" stroke-miterlimit="10"/>
<path d="M1378.11 -300.912C1374.95 -142.02 1381.05 16.6739 1383.06 175.5C1386.07 413.732 1379.41 651.819 1378.53 890.037C1377.56 1152.56 1380.92 1415.12 1380.04 1677.66" stroke="#1E1E1E" stroke-miterlimit="10"/>
<path d="M42 -300.898C45.3139 -197.781 84.8703 -105.47 122.797 -21.0102C160.331 62.5788 201.709 142.896 235.443 229.928C259.226 291.284 281.938 360.676 280.95 432.6C280.144 491.304 263.153 545.812 241.311 594.342C194.193 699.017 124.317 780.877 84.5591 892.716C40.9655 1015.35 69.976 1158.12 93.86 1283.32C124.747 1445.22 169.952 1608.86 172.533 1778.58" stroke="#1E1E1E" stroke-miterlimit="10"/>
<path d="M78.4414 -297.454C82.0757 -194.324 120.9 -102.633 159.083 -18.2657C196.351 64.0831 237.509 143.08 270.932 228.926C294.798 290.229 317.611 360.161 316.476 432.112C315.542 490.882 298.698 545.825 276.709 594.342C230.296 696.747 161.015 775.784 121.953 885.433C78.2034 1008.25 107.827 1151.31 130.723 1277.12C160.264 1439.42 202.127 1602.57 206.759 1771.65" stroke="#1E1E1E" stroke-miterlimit="10"/>
<path d="M96.8711 -293.51C100.496 -193.415 137.05 -104.627 174.107 -22.5287C212.501 62.5381 255.527 143.567 289.884 232.315C312.907 291.784 334.622 359.342 334.045 428.931C333.56 487.859 316.789 543.449 294.8 592.058C248.808 693.724 179.252 770.861 140.666 879.876C97.8506 1000.81 126.861 1142.19 148.521 1266.39C177.055 1429.99 217.426 1593.93 222.653 1763.72" stroke="#1E1E1E" stroke-miterlimit="10"/>
<path d="M115.418 -288.257C119.116 -187.898 155.743 -99.2815 193.149 -17.1835C230.425 64.6242 271.904 142.671 305.529 227.857C329.083 287.537 351.2 355.292 351.182 425.423C351.164 486.805 333.679 544.427 310.234 594.54C264.627 692.024 196.774 766.416 159.561 872.344C117.112 993.182 147.01 1138.03 167.836 1262.14C194.979 1423.83 232.385 1585.89 237.822 1753.16" stroke="#1E1E1E" stroke-miterlimit="10"/>
<path d="M134.074 -281.845C137.846 -180.549 175.022 -91.7481 213.105 -9.25423C250.656 72.0785 292.584 149.677 325.64 235.166C348.023 293.065 368.767 358.551 368.337 426.253C367.962 485.419 351.264 541.417 328.634 589.763C284.162 684.792 217.517 756.004 180.387 858.541C136.509 979.709 166.582 1126.86 186.52 1252.29C212.098 1413.24 246.903 1574.36 252.35 1740.2" stroke="#1E1E1E" stroke-miterlimit="10"/>
<path d="M152.832 -274.39C156.595 -173.212 193.826 -84.8335 232.155 -2.77506C268.526 75.0742 308.842 149.427 341.176 231.063C364.849 290.849 386.582 359.224 385.126 429.618C383.955 486.079 368.291 539.135 346.54 585.291C302.654 678.393 236.037 746.861 199.712 847.761C157.089 966.171 186.099 1111.86 204.317 1234.92C228.301 1396.94 261.029 1558.89 266.329 1725.19" stroke="#1E1E1E" stroke-miterlimit="10"/>
<path d="M171.668 -266.051C175.311 -167.736 210.693 -82.2868 248.071 -2.56388C284.552 75.2458 325.344 149.137 357.934 230.628C381.085 288.513 402.36 354.514 401.985 422.797C401.674 479.482 386.734 533.079 364.855 579.406C321.481 671.242 254.241 736.859 218.795 836.942C177.6 953.254 206.327 1100.47 222.924 1221.45C245.014 1382.55 274.884 1543.62 279.8 1708.37" stroke="#1E1E1E" stroke-miterlimit="10"/>
<path d="M190.582 -256.947C194.601 -147.575 237.911 -54.3011 280.543 32.5734C321.784 116.611 368.252 198.498 397.336 293.303C420.185 367.814 426.346 447.18 402.865 523.024C383.933 584.182 350.556 632.594 318.543 679.805C286.53 727.016 253.153 775.427 234.221 836.585C211.061 911.426 219.162 993.049 226.449 1071.73C245.573 1278.24 287.253 1481.05 292.865 1689.96" stroke="#1E1E1E" stroke-miterlimit="10"/>
<path d="M209.562 -247.209C213.536 -137.429 257.459 -44.6295 300.668 41.9811C340.92 122.654 385.978 201.48 414.11 292.986C436.3 365.148 442.946 442.945 420.71 516.901C402.502 577.452 369.198 624.505 337.231 670.251C305.263 715.984 271.959 763.037 253.751 823.601C231.094 898.943 240.321 983.76 247.068 1062.69C264.398 1265.5 300.86 1465.53 305.593 1670.35" stroke="#1E1E1E" stroke-miterlimit="10"/>
<path d="M228.574 -236.983C235.989 -28.1225 374.863 111.505 430.952 292.682C452.502 362.285 459.331 438.96 438.468 510.568C421.019 570.472 387.862 616.034 355.94 660.171C324.019 704.307 290.852 749.882 273.413 809.773C252.724 880.801 260.926 960.972 266.281 1035.3C281.057 1240.4 314.178 1443.06 318.032 1649.67" stroke="#1E1E1E" stroke-miterlimit="10"/>
<path d="M247.625 -226.402C254.765 -20.6816 392.421 114.605 447.632 292.391C469.145 361.69 475.974 438.748 454.415 509.881C437.287 566.394 405.521 608.684 374.68 649.759C342.813 692.194 309.83 736.172 293.196 795.39C273.138 866.813 282.11 950.337 286.834 1024.91C299.586 1226.2 327.507 1425.85 330.29 1628.34" stroke="#1E1E1E" stroke-miterlimit="10"/>
<path d="M266.695 -215.594C273.561 -12.6055 409.697 117.244 464.413 292.128C485.881 360.741 492.591 438.907 470.428 509.117C453.703 562.107 423.081 601.269 393.421 639.138C363.778 677.007 333.138 716.196 316.413 769.16C294.442 838.775 302.608 922.338 306.288 996.255C316.404 1199.86 340.663 1402.11 342.412 1606.53" stroke="#1E1E1E" stroke-miterlimit="10"/>
<path d="M285.77 -204.708C292.342 -4.74112 427.133 120.121 481.052 291.851C501.796 357.931 508.91 434.593 488.138 502.599C472.164 554.916 441.771 592.31 412.174 628.424C382.587 664.525 352.185 701.959 336.211 754.25C314.688 824.71 323.706 911.176 326.681 985.542C334.673 1185.3 353.851 1384.25 354.492 1584.56" stroke="#1E1E1E" stroke-miterlimit="10"/>
<path d="M304.848 -193.876C311.155 3.16142 444.481 122.983 497.842 291.573C518 355.251 525.077 430.105 505.816 496.172C490.747 547.856 460.419 583.561 430.932 617.775C401.381 652.055 371.245 687.707 356.049 739.378C336.577 805.563 344.486 886.566 346.354 956.591C351.746 1158.7 367.034 1360.3 366.604 1562.69" stroke="#1E1E1E" stroke-miterlimit="10"/>
<path d="M323.91 -183.214C329.961 11.0001 461.904 125.663 514.515 291.297C534.536 354.315 541.869 430.146 521.802 495.275C506.88 543.674 478.145 576.041 449.683 607.286C420.133 639.732 390.307 673.577 375.898 724.706C357.196 791.103 365.371 876.697 366.524 946.55C369.801 1144.79 380.265 1342.82 378.828 1541.19" stroke="#1E1E1E" stroke-miterlimit="10"/>
<path d="M342.934 -172.883C348.756 18.5736 479.271 128.381 531.351 290.993C551.234 353.075 558.768 430.753 537.887 494.549C523.176 539.504 495.667 568.915 468.395 597.126C441.152 625.31 413.514 654.668 398.904 699.702C377.83 764.647 386.051 848.632 386.344 918.247C387.195 1118.95 393.631 1319.61 391.214 1520.34" stroke="#1E1E1E" stroke-miterlimit="10"/>
<path d="M361.918 -163.013C367.548 25.897 496.717 130.743 548.101 290.69C567.381 350.7 575.089 426.385 555.654 488.652C541.757 533.197 514.321 560.999 487.096 587.401C459.871 613.804 432.435 641.619 418.538 686.151C409.045 716.565 407.974 748.352 407.562 781.18C407.022 824.09 406.464 866.999 406.207 909.922C405.063 1106.74 407.068 1303.6 403.864 1500.39" stroke="#1E1E1E" stroke-miterlimit="10"/>
<path d="M380.852 -153.724C386.344 32.9033 514.095 132.959 565.067 290.334C583.852 348.338 591.477 422.532 573.425 483.057C560.206 527.392 533.072 553.557 505.746 578.271C478.521 602.892 451.121 629.189 438.067 673.484C419.749 735.619 427.173 817.189 426.093 883.242C422.834 1082.71 420.765 1282.21 416.819 1481.65" stroke="#1E1E1E" stroke-miterlimit="10"/>
<path d="M399.711 -145.161C405.121 39.3686 531.608 134.872 581.958 289.977C600.715 347.757 608.506 422.836 589.611 482.898C576.493 524.594 550.641 547.513 524.358 569.852C496.867 593.22 470.1 617.419 457.494 661.925C449.96 688.539 449.227 716.525 448.797 744.802C448.12 789.084 446.728 833.379 445.584 877.647C440.558 1073.23 434.571 1268.77 430.177 1464.38" stroke="#1E1E1E" stroke-miterlimit="10"/>
<path d="M418.492 -137.455C423.774 43.6308 546.847 135.137 597.81 285.689C617.245 343.1 625.584 419.089 607.175 479.442C594.716 520.266 568.918 541.946 542.91 562.292C516.839 582.691 491.252 604.37 478.646 645.142C469.858 673.55 469.537 703.872 468.961 734.418C468.183 775.85 466.718 817.281 465.308 858.673C458.616 1055.43 448.748 1251.97 444.015 1448.86" stroke="#1E1E1E" stroke-miterlimit="10"/>
<path d="M437.176 -130.752C442.614 52.2601 568.789 139.042 617.5 292.933C635.068 348.417 642.144 422.955 623.506 479.982C610.964 518.366 586.558 537.485 561.383 555.694C534.982 574.787 509.716 595.186 497.65 636.354C489.823 663.087 489.448 691.574 488.972 720.062C488.267 762.246 486.491 804.442 484.752 846.56C476.659 1042.89 463.174 1238.74 458.378 1435.33" stroke="#1E1E1E" stroke-miterlimit="10"/>
<path d="M455.762 -125.183C461.227 55.0443 584.153 138.488 633.459 288.553C651.74 344.182 659.632 419.498 641.259 477.489C629.211 515.503 604.769 533.369 579.814 550.218C554.703 567.161 530.673 584.974 518.369 622.948C509.123 651.462 509.16 682.813 508.565 713.596C507.741 756.321 505.91 799.033 503.868 841.665C494.558 1035.91 477.952 1229.41 473.412 1424.1" stroke="#1E1E1E" stroke-miterlimit="10"/>
<path d="M474.219 -120.882C479.803 56.9439 599.461 137.577 649.664 284.066C669.081 340.724 678.198 421.437 657.445 480.325C645.123 515.292 621.963 531.231 598.143 545.983C572.94 561.592 549.102 578.627 537.293 616.667C528.138 646.171 528.386 677.759 527.809 709.374C527.077 749.196 525.328 789.004 523.268 828.734C513.153 1024.45 493.141 1219.08 489.086 1415.43" stroke="#1E1E1E" stroke-miterlimit="10"/>
<path d="M492.555 -117.979C498.34 59.5311 617.119 137.473 667.24 283.394C686.712 340.079 695.811 421.2 674.976 480.102C662.8 514.527 640.051 529.464 616.387 543.133C591.331 557.621 567.923 573.64 556.27 611.153C547.097 640.669 547.243 672.548 546.767 704.202C546.172 744.037 544.442 783.859 542.273 823.576C531.617 1019.12 508.74 1213.23 505.554 1409.57" stroke="#1E1E1E" stroke-miterlimit="10"/>
<path d="M510.734 -116.606C516.932 62.8037 637.13 138.067 686.271 286.521C704.507 341.61 712.197 416.754 694.583 474.481C682.966 512.562 659.915 527.775 634.521 541.814C609.236 555.788 585.874 571.133 574.459 609.147C566.238 636.527 565.624 666.598 565.341 695.93C564.956 736.002 563.519 776.022 561.359 815.989C550.684 1013.25 524.823 1208.65 522.855 1406.85" stroke="#1E1E1E" stroke-miterlimit="10"/>
<path d="M528.762 -116.923C534.721 60.6263 653.006 137.117 703.118 282.932C722.69 339.881 731.679 421.095 710.716 480.221C698.604 514.369 676.167 528.936 652.603 542.17C627.63 556.196 604.552 571.859 592.953 609.094C583.753 638.637 583.67 670.793 583.341 702.527C582.92 742.441 581.317 782.329 579.111 822.124C568.291 1017.46 542.997 1211.04 541.02 1407.34" stroke="#1E1E1E" stroke-miterlimit="10"/>
<path d="M546.629 -118.864C552.323 58.712 671.413 137.577 721.552 283.657C741.051 340.46 749.949 420.936 729.141 479.929C716.975 514.434 694.318 529.991 670.745 544.32C645.781 559.494 622.474 576.159 610.811 613.711C601.666 643.149 601.629 674.922 601.226 706.524C600.713 746.464 599.066 786.392 596.896 826.214C586.259 1021.23 562.402 1214.66 559.83 1410.56" stroke="#1E1E1E" stroke-miterlimit="10"/>
<path d="M564.359 -122.307C569.889 55.7305 689.895 137.485 740.153 284.291C759.67 341.305 768.412 421.134 747.751 480.365C735.502 515.464 712.616 532.366 688.97 548.121C663.951 564.773 640.387 582.797 628.642 620.916C619.552 650.407 619.497 681.929 619.048 713.544C618.481 753.484 616.833 793.386 614.736 833.207C604.465 1027.76 582.192 1220.88 579.235 1416.21" stroke="#1E1E1E" stroke-miterlimit="10"/>
<path d="M581.977 -127.084C587.433 53.5134 710.725 138.237 760.132 288.777C778.55 344.907 785.984 419.247 767.757 477.752C755.866 515.925 731.927 535.176 707.265 553.438C682.465 571.805 658.92 590.99 646.772 629.123C637.663 657.703 637.352 688.988 636.848 719.824C636.144 762.628 634.542 805.379 632.354 848.078C622.513 1040.27 602.309 1231.29 599.187 1424.16" stroke="#1E1E1E" stroke-miterlimit="10"/>
<path d="M599.457 -133.087C604.913 50.4529 731.492 138.647 780.331 293.145C798.081 349.302 804.554 422.757 786.226 480.537C773.968 519.185 750.313 540.072 725.596 560.102C699.68 581.108 675.183 603.341 663.373 644.694C655.73 671.492 654.96 700.033 654.585 728.56C654.036 770.757 652.461 812.927 650.493 855.032C641.467 1048.22 622.773 1240.37 619.588 1434.1" stroke="#1E1E1E" stroke-miterlimit="10"/>
<path d="M616.855 -140.173C622.183 41.5456 745.686 134.569 796.786 285.847C816.468 344.115 824.076 418.904 806.133 480.233C794.086 521.401 769.35 545.31 744.002 567.965C718.598 590.673 694.055 614.582 681.87 655.697C673.384 684.343 672.67 714.718 672.176 745.409C671.517 786.722 670.208 827.995 668.441 869.242C660.22 1061.58 643.504 1253.09 640.428 1445.87" stroke="#1E1E1E" stroke-miterlimit="10"/>
<path d="M634.156 -148.209C639.631 37.0723 766.566 134.199 817.081 290.148C836.131 348.971 843.034 422.743 824.862 484.033C812.357 526.23 787.823 551.788 762.438 576.885C735.881 603.129 710.504 630.073 698.457 674.988C691.262 701.826 690.154 729.997 689.815 758.419C689.284 802.384 687.92 846.335 686.218 890.248C678.857 1079.99 664.476 1269.11 661.647 1459.19" stroke="#1E1E1E" stroke-miterlimit="10"/>
<path d="M651.375 -157.049C656.959 30.436 785.167 132.181 836.332 290.492C855.437 349.618 862.092 422.533 844.955 484.429C832.505 529.384 807.074 558.69 780.92 586.702C754.848 614.622 729.188 644.06 716.884 688.975C699.509 752.402 706.705 831.307 704.544 898.231C698.347 1090.19 685.723 1281.65 683.187 1473.85" stroke="#1E1E1E" stroke-miterlimit="10"/>
<path d="M668.535 -166.576C674.275 21.6478 801.778 128.42 854.316 286.942C875.353 350.409 882.42 428.457 862.353 494.51C849.134 538 824.39 568.057 799.435 597.271C773.308 627.856 747.795 659.3 734.987 705.56C716.761 771.363 724.277 852.524 722.391 922.047C717.246 1111.3 707.094 1300.24 704.988 1489.65" stroke="#1E1E1E" stroke-miterlimit="10"/>
<path d="M685.648 -176.63C691.69 17.5706 824.677 128.842 876.134 295.084C895.414 357.363 900.723 431.109 882.533 495.341C869.25 542.235 843.783 575.737 817.976 608.46C791.117 642.502 764.679 677.627 751.844 727.134C735.449 790.377 741.948 866.722 740.603 932.973C736.712 1124.14 728.665 1315.11 727.008 1506.37" stroke="#1E1E1E" stroke-miterlimit="10"/>
<path d="M702.719 -187.107C708.898 6.53939 839.258 123.142 892.994 287.536C914.278 352.639 920.824 427.915 902.826 496.357C889.607 546.616 863.032 583.904 836.529 620.084C810 656.291 783.562 693.592 770.233 743.812C752.299 811.382 759.467 892.042 758.424 963.07C755.686 1149.97 750.285 1336.79 749.159 1523.74" stroke="#1E1E1E" stroke-miterlimit="10"/>
<path d="M719.766 -197.834C726.311 2.04029 862.044 123.419 914.865 295.664C934.905 361.018 939.793 435.7 921.557 503.152C907.743 554.269 881.369 593.655 855.096 632.026C828.841 670.383 802.449 709.796 788.635 760.899C770.527 827.876 777.063 905.422 776.523 975.737C775.077 1164.36 772.019 1352.94 771.433 1541.57" stroke="#1E1E1E" stroke-miterlimit="10"/>
<path d="M736.805 -208.707C743.515 -9.24134 876.786 117.481 931.795 288.077C954.388 358.154 960.448 437.139 940.299 510.066C925.908 562.159 899.745 603.551 873.691 644.086C847.656 684.594 821.383 725.973 807.083 778.105C787.658 848.935 794.597 931.64 794.514 1006.19C794.313 1190.65 793.81 1375.13 793.791 1559.59" stroke="#1E1E1E" stroke-miterlimit="10"/>
<path d="M753.828 -219.579C760.932 -15.4292 897.526 116.123 952.379 292.313C973.956 361.612 979.302 437.574 960.984 509.631C946.639 566.052 919.332 611.627 892.253 656.173C865.174 700.705 837.857 746.32 823.521 802.714C805.157 874.929 812.105 956.803 812.554 1032.16C813.634 1214 815.575 1395.82 816.097 1577.67" stroke="#1E1E1E" stroke-miterlimit="10"/>
<path d="M770.887 -230.32C778.265 -23.1481 916.186 113.286 971.836 292.59C994.182 364.581 998.998 441.929 979.709 516.611C964.888 574.009 937.663 621.576 910.831 668.101C883.999 714.626 856.765 762.206 841.953 819.59C823.507 891.04 829.576 970.46 830.519 1045.21C832.826 1228.64 837.33 1412.01 838.383 1595.48" stroke="#1E1E1E" stroke-miterlimit="10"/>
<path d="M787.949 -240.782C795.584 -30.972 935.007 110.766 991.123 292.881C1013.44 365.307 1018.42 441.877 999.921 517.258C984.926 578.364 956.986 629.52 929.386 679.739C900.851 731.648 871.868 784.757 857.303 848.501C840.844 920.557 847.188 999.726 848.671 1074.32C852.241 1253.86 859.024 1433.24 860.544 1612.88" stroke="#1E1E1E" stroke-miterlimit="10"/>
<path d="M805.07 -250.851C809.217 -138.682 854.688 -43.9435 898.766 44.5407C938.533 124.382 982.703 202.72 1010.51 293.183C1032.81 365.755 1037.8 442.034 1020.15 517.666C1005.07 582.334 976.213 637.172 947.935 690.901C919.657 744.63 890.802 799.468 875.715 864.135C859.018 935.704 864.602 1012.25 866.515 1086.39C871.184 1267.5 880.604 1448.3 882.572 1629.55" stroke="#1E1E1E" stroke-miterlimit="10"/>
<path d="M822.227 -260.364C826.41 -148.683 871.221 -53.496 914.687 35.173C955.451 118.34 1001.03 199.686 1029.69 293.501C1052.63 368.592 1057.33 446.006 1038.75 524.172C1023.17 589.684 994.477 646.092 966.437 701.484C938.397 756.876 909.707 813.283 894.126 878.795C876.174 954.283 882.143 1035 884.724 1113.27C890.583 1290.7 902.053 1467.68 904.351 1645.36" stroke="#1E1E1E" stroke-miterlimit="10"/>
<path d="M839.453 -269.205C843.701 -157.182 888.484 -61.0706 931.721 28.3241C973.694 115.106 1021 200.015 1050.15 297.92C1071.95 371.138 1076.19 446.243 1059.16 522.258C1043.57 591.861 1013.82 652.108 984.927 711.313C956.035 770.531 926.283 830.765 910.693 900.381C894.728 971.633 899.57 1045.88 902.308 1119.45C909.009 1299.79 923.281 1479.4 925.899 1660.05" stroke="#1E1E1E" stroke-miterlimit="10"/>
<path d="M856.754 -277.24C860.974 -165.942 905.089 -69.7389 947.667 19.5635C989.484 107.256 1036.47 192.626 1066.8 290.321C1090.93 368.025 1096.2 446.771 1077.58 528.117C1061.52 598.287 1031.99 659.735 1003.36 720.234C974.737 780.732 945.204 842.18 929.147 912.35C911.983 987.349 917.155 1065.7 920.551 1143.19C928.296 1320.08 944.362 1496.03 947.108 1673.37" stroke="#1E1E1E" stroke-miterlimit="10"/>
<path d="M874.141 -284.325C877.949 -183.847 914.466 -95.7191 952.073 -13.6606C989.276 67.5137 1030.76 144.888 1064.1 229.651C1087.5 289.186 1109.03 356.176 1109.04 426.016C1109.06 485.459 1095.79 543.437 1077.51 596.084C1040.47 702.79 982.273 792.607 952.192 904.605C921.616 1018.41 937.078 1148.68 944.877 1267.04C954.059 1406.27 965.731 1545.17 967.946 1685.13" stroke="#1E1E1E" stroke-miterlimit="10"/>
<path d="M891.633 -290.33C895.395 -190.023 931.839 -101.645 969.107 -19.4676C1007.48 65.1374 1050.52 145.678 1084.67 234.15C1107.71 293.83 1128.23 360.226 1127.92 429.789C1127.65 489.284 1114.08 547.196 1095.94 600.028C1058.69 708.568 1000.96 800.972 970.407 914.526C939.849 1028.12 954.524 1155.94 963.001 1274C973.071 1414.21 986.189 1553.97 988.359 1695.08" stroke="#1E1E1E" stroke-miterlimit="10"/>
<path d="M909.234 -295.119C913.043 -191.619 951.821 -100.034 990.279 -15.4293C1027.5 66.4576 1068.65 144.98 1101.88 230.522C1125.81 292.115 1147.67 361.177 1146.77 433.247C1146.03 492.663 1132.23 550.298 1114.22 603.116C1076.78 713.003 1019.49 807.609 988.604 922.338C957.542 1037.7 972.244 1166.45 981.555 1286.25C992.339 1424.98 1006.34 1563.2 1008.3 1702.99" stroke="#1E1E1E" stroke-miterlimit="10"/>
<path d="M926.969 -298.549C930.685 -194.772 969.867 -102.633 1008.26 -17.7111C1045.67 65.0203 1086.97 144.427 1120.4 230.773C1144.3 292.499 1166.28 361.613 1165.38 433.788C1164.64 493.389 1150.68 551.183 1132.76 604.252C1095.04 716.012 1037.66 812.862 1006.46 929.385C975.524 1044.88 989.887 1173.19 999.747 1292.98C1011.13 1431.35 1026.07 1569.09 1027.71 1708.68" stroke="#1E1E1E" stroke-miterlimit="10"/>
<path d="M944.84 -300.502C948.355 -197.464 987.326 -105.787 1025.27 -21.327C1063.73 64.2677 1106.49 146.287 1140.53 235.879C1163.01 295.058 1183.8 360.662 1183.79 429.486C1183.79 490.961 1169.21 550.773 1150.8 605.465C1113.02 717.727 1056.26 815.645 1024.75 932.472C993.313 1049.03 1007.59 1178.83 1018.03 1299.75C1029.87 1436.91 1045.35 1573.37 1046.54 1711.9" stroke="#1E1E1E" stroke-miterlimit="10"/>
<path d="M962.863 -300.898C966.635 -198.018 1005.62 -106.315 1043.38 -21.8019C1081.74 64.083 1124.37 146.458 1158.38 236.262C1180.7 295.216 1201.79 360.94 1201.79 429.513C1201.79 490.684 1186.92 550.417 1168.69 604.859C1130.9 717.74 1074.48 816.701 1042.86 934.029C1011.46 1050.51 1025.37 1179.77 1035.97 1300.59C1047.99 1437.69 1063.81 1574 1064.69 1712.54" stroke="#1E1E1E" stroke-miterlimit="10"/>
<path d="M980.934 -300.898C985.731 -198.295 1023.87 -106.79 1061.25 -21.8679C1098.97 63.8455 1140.8 146.181 1174.3 235.629C1196.26 294.253 1218.05 360.874 1218.08 428.985C1218.1 489.787 1202.63 550.127 1184.73 604.291C1147.45 717.107 1092.23 816.675 1060.88 933.726C1029.52 1050.8 1043.11 1178.82 1053.57 1300.24C1065.4 1437.36 1080.87 1573.77 1082 1712.26" stroke="#1E1E1E" stroke-miterlimit="10"/>
<path d="M998.996 -300.898C1004.5 -198.744 1041.56 -107.436 1078.34 -22.145C1115.18 63.3177 1156 145.574 1188.77 234.586C1210.27 293.013 1232.33 360.227 1232.36 427.89C1232.4 488.388 1216.65 549.163 1199.16 603.222C1162.67 715.998 1108.87 816.252 1078.07 933.013C1047.05 1050.63 1060.27 1177.67 1070.53 1299.55C1082.08 1436.74 1097.13 1573.24 1098.44 1711.72" stroke="#1E1E1E" stroke-miterlimit="10"/>
<path d="M1017.07 -300.886C1022.98 -199.339 1058.77 -108.229 1094.72 -22.6344C1130.49 62.5248 1170.11 144.636 1201.91 233.147C1222.89 291.507 1244.79 359.025 1244.85 426.252C1244.89 486.487 1229.18 547.552 1212.16 601.651C1176.68 714.4 1124.53 815.407 1094.55 931.89C1064.15 1050.01 1076.95 1176.28 1086.93 1298.52C1098.15 1435.79 1112.72 1572.42 1114.13 1710.88" stroke="#1E1E1E" stroke-miterlimit="10"/>
<path d="M1035.12 -300.886C1041.25 -199.286 1076.07 -107.648 1111.32 -21.2093C1145 61.3769 1182.04 141.324 1212.27 226.76C1233.78 287.575 1256.57 358.801 1255.53 428.641C1254.66 486.988 1240.16 545.679 1224.16 598.55C1189.78 712.184 1138.91 814.694 1109.97 931.877C1081.03 1049.07 1093.11 1173.32 1102.59 1294.3C1113.43 1432.63 1127.65 1570.36 1129.12 1709.8" stroke="#1E1E1E" stroke-miterlimit="10"/>
<path d="M1053.18 -300.886C1059.24 -200.118 1092.42 -108.73 1126.47 -22.0538C1158.74 60.1233 1194.29 139.833 1223.21 224.689C1243.99 285.662 1265.91 356.716 1264.9 426.107C1264.05 484.31 1250.07 543.026 1234.66 596.162C1201.71 709.809 1152.9 813.19 1125.19 930.109C1097.32 1047.7 1108.92 1171.61 1118.01 1292.73C1128.4 1431.17 1142 1569.07 1143.47 1708.54" stroke="#1E1E1E" stroke-miterlimit="10"/>
<path d="M1071.23 -300.886C1082.38 -109.007 1178.02 53.1698 1233.2 222.327C1253.17 283.551 1273.92 354.209 1272.96 423.178C1272.16 481.275 1258.86 539.939 1244.12 593.417C1212.78 707.091 1166.19 811.369 1139.87 928.038C1113.26 1046.01 1124.34 1169.73 1132.99 1290.91C1142.89 1429.48 1155.83 1567.55 1157.25 1707.05" stroke="#1E1E1E" stroke-miterlimit="10"/>
<path d="M1089.29 -300.886C1099.59 -111.158 1190 50.7419 1242.38 219.728C1261.46 281.281 1280.82 351.346 1279.93 419.932C1279.17 477.95 1266.71 536.508 1252.7 590.369C1223.12 704.095 1178.91 809.284 1154.13 925.715C1128.94 1044.05 1139.48 1167.67 1147.65 1288.88C1157.01 1427.58 1169.26 1565.85 1170.59 1705.38" stroke="#1E1E1E" stroke-miterlimit="10"/>
<path d="M1107.34 -300.898C1116.56 -113.466 1201.56 48.1962 1250.9 216.931C1269.01 278.854 1286.79 348.206 1285.97 416.41C1285.28 474.375 1273.76 532.788 1260.54 587.085C1232.84 700.877 1191.13 807.002 1168.01 923.209C1144.4 1041.87 1154.36 1165.5 1162.02 1286.69C1170.8 1425.53 1182.32 1564 1183.51 1703.59" stroke="#1E1E1E" stroke-miterlimit="10"/>
<path d="M1125.39 -300.898C1133.33 -115.854 1212.77 45.6104 1258.85 213.976C1275.91 276.308 1291.97 344.829 1291.23 412.663C1290.61 470.602 1280.13 528.83 1267.75 583.589C1242.02 697.46 1202.94 804.536 1181.56 920.531C1159.64 1039.51 1169 1163.21 1176.13 1284.35C1184.32 1423.36 1195.07 1562.02 1196.12 1701.68" stroke="#1E1E1E" stroke-miterlimit="10"/>
<path d="M1143.43 -300.898C1149.96 -118.322 1223.73 42.9846 1266.37 210.902C1282.3 273.643 1296.54 341.279 1295.9 408.758C1295.35 466.696 1285.96 524.713 1274.48 579.947C1250.79 693.91 1214.43 801.91 1194.86 917.734C1174.71 1037.01 1183.47 1160.82 1190.04 1281.92C1197.6 1421.09 1207.57 1559.96 1208.44 1699.68" stroke="#1E1E1E" stroke-miterlimit="10"/>
<path d="M1161.48 -300.898C1166.56 -119.589 1235.46 42.6676 1274.43 211.324C1288.58 272.574 1300.36 337.136 1300.14 402.147C1299.94 460.573 1291.71 518.894 1281.13 575.064C1259.46 690.057 1225.53 799.759 1207.81 916.374C1189.86 1034.49 1197.79 1156.9 1203.69 1276.47C1210.62 1416.8 1219.93 1556.85 1220.61 1697.64" stroke="#1E1E1E" stroke-miterlimit="10"/>
<path d="M1179.54 -300.898C1183.07 -122.082 1246.11 40.0289 1281.41 208.078C1307.24 331.053 1308.48 446.692 1287.34 571.225C1267.79 686.323 1236.74 796.948 1220.9 913.419C1204.78 1031.84 1212.09 1154.33 1217.43 1273.91C1223.71 1414.41 1232.21 1554.67 1232.69 1695.54" stroke="#1E1E1E" stroke-miterlimit="10"/>
<path d="M1197.57 -300.912C1199.59 -124.563 1256.73 37.4293 1288.32 204.818C1311.34 326.765 1312.11 444.159 1293.48 567.372C1276.06 682.602 1247.91 794.085 1233.94 910.45C1219.67 1029.18 1226.35 1151.7 1231.13 1271.33C1236.76 1411.98 1244.44 1552.46 1244.71 1693.43" stroke="#1E1E1E" stroke-miterlimit="10"/>
<path d="M1215.62 -300.912C1216.17 -126.965 1267.45 34.9221 1295.33 201.586C1315.56 322.569 1315.91 441.559 1299.71 563.558C1284.39 678.92 1259.16 791.235 1247.03 907.52C1234.59 1026.55 1240.65 1149.08 1244.88 1268.78C1249.86 1409.6 1256.72 1550.27 1256.8 1691.34" stroke="#1E1E1E" stroke-miterlimit="10"/>
<path d="M1233.67 -300.912C1232.87 -129.247 1278.35 32.5341 1302.54 198.419C1320.07 318.571 1320.07 438.894 1306.19 559.825C1292.93 675.332 1270.6 788.411 1260.24 904.657C1249.6 1023.99 1255.02 1146.47 1258.72 1266.3C1263.07 1407.27 1269.12 1548.14 1269.01 1689.31" stroke="#1E1E1E" stroke-miterlimit="10"/>
<path d="M1251.71 -300.912C1249.7 -131.411 1289.47 30.2646 1310.08 195.345C1325 314.837 1324.7 436.137 1313.01 556.209C1301.75 671.875 1282.27 785.654 1273.63 901.887C1264.73 1021.54 1269.53 1143.89 1272.7 1263.89C1276.42 1405.02 1281.69 1546.06 1281.4 1687.33" stroke="#1E1E1E" stroke-miterlimit="10"/>
<path d="M1269.77 -300.912C1266.74 -133.391 1300.94 28.1399 1318.1 192.415C1330.54 311.445 1330.01 433.326 1320.36 552.765C1311.01 668.589 1294.31 783.014 1287.29 899.26C1280.04 1019.21 1284.22 1141.41 1286.89 1261.59C1290.02 1402.87 1294.52 1544.08 1294.08 1685.46" stroke="#1E1E1E" stroke-miterlimit="10"/>
<path d="M1287.82 -300.912C1284.04 -136.65 1312.3 23.3373 1326.33 185.317C1336.71 305.178 1336.23 428.18 1328.43 548.371C1320.84 665.277 1306.66 781.154 1301.18 898.363C1289 1159.03 1308.13 1422.7 1307.11 1683.72" stroke="#1E1E1E" stroke-miterlimit="10"/>
<path d="M1305.87 -300.912C1301.55 -138.193 1324.74 21.5692 1335.73 182.796C1343.9 302.592 1343.26 425.409 1337.19 545.416C1331.26 662.48 1319.68 778.858 1315.57 896.133C1306.42 1157.47 1321.73 1420.56 1320.54 1682.12" stroke="#1E1E1E" stroke-miterlimit="10"/>
<path d="M1323.93 -300.912C1319.37 -139.513 1337.76 20.0119 1345.99 180.513C1358.25 419.669 1336.33 655.605 1330.44 894.141C1323.98 1155.98 1335.75 1418.73 1334.49 1680.68" stroke="#1E1E1E" stroke-miterlimit="10"/>
<path d="M1341.99 -300.912C1337.51 -140.595 1351.43 18.6661 1357.21 178.508C1365.83 417.096 1349.63 654.141 1345.85 892.426C1341.68 1154.59 1350.25 1417.18 1349.01 1679.43" stroke="#1E1E1E" stroke-miterlimit="10"/>
<path d="M1360.05 -300.912C1356.03 -141.426 1365.83 17.5445 1369.52 176.832C1375.04 415.143 1363.96 652.861 1361.85 891.053C1359.53 1153.44 1365.28 1415.99 1364.16 1678.43" stroke="#1E1E1E" stroke-miterlimit="10"/>
<path d="M1378.11 -300.912C1374.95 -142.02 1381.05 16.6739 1383.06 175.5C1386.07 413.732 1379.41 651.819 1378.53 890.037C1377.56 1152.56 1380.92 1415.12 1380.04 1677.66" stroke="#1E1E1E" stroke-miterlimit="10"/>
<path d="M60.1445 -299.961C63.6507 -196.712 102.859 -104.599 140.942 -20.0597C178.365 63.0147 219.652 142.764 253.258 229.309C277.096 290.704 299.909 360.491 298.829 432.509C297.95 491.344 280.978 546.208 259.034 594.831C212.209 698.595 142.562 779.281 103.097 890.236C59.3664 1013.19 88.7705 1156.01 112.298 1281.7C142.645 1443.85 186.302 1607.23 190.074 1776.7" stroke="#1E1E1E" stroke-miterlimit="10"/>
<path d="M1414.21 -170.798C1298.56 -172.104 1183.03 -165.177 1067.4 -163.594C1012.94 -162.855 959.476 -166.035 905.877 -149.357C855.637 -133.721 807.256 -107.925 759.076 -82.5646C710.896 -57.2042 662.515 -31.4084 612.275 -15.7726C556.698 1.5258 504.518 -0.796477 449.088 -18.4247C320.166 -59.4341 200.205 -153.671 66.6602 -163.528" stroke="#1E1E1E" stroke-miterlimit="10"/>
<path d="M1414.21 -144.765C1300.6 -145.966 1187.2 -137.112 1073.64 -134.961C1022.45 -133.985 972.018 -136.94 921.476 -122.941C868.966 -108.387 818.278 -83 767.791 -58.0882C717.313 -33.1896 666.625 -7.80282 614.106 6.76423C561.568 21.3313 512.18 18.8375 459.771 3.32039C330.455 -34.9577 209.68 -125.105 76.3086 -134.671" stroke="#1E1E1E" stroke-miterlimit="10"/>
<path d="M1414.21 -118.745C1304.61 -119.761 1195.33 -109.152 1085.8 -106.157C1032.9 -104.705 980.732 -107.529 928.451 -93.5162C877.104 -79.7673 827.258 -56.6104 777.586 -33.8098C727.914 -11.0092 678.068 12.1477 626.72 25.8967C570.237 41.0179 516.803 37.9039 460.612 21.3181C335.096 -15.7461 216.509 -96.7622 87.1562 -105.497" stroke="#1E1E1E" stroke-miterlimit="10"/>
<path d="M1414.21 -92.7108C1308.83 -93.4761 1203.95 -81.0597 1098.68 -77.1409C1044.13 -75.1089 990.269 -77.827 936.276 -64.0517C886.073 -51.2527 837.097 -30.2994 788.24 -9.68912C739.382 10.9343 690.406 31.8745 640.203 44.6734C583.564 59.1217 529.608 57.3404 473.116 42.1268C347.333 8.269 227.996 -68.1157 98.9453 -76.0325" stroke="#1E1E1E" stroke-miterlimit="10"/>
<path d="M1414.22 -66.6913C1310.86 -67.1663 1208.25 -52.2166 1105.04 -47.6644C1053.45 -45.3949 1002.33 -47.704 951.135 -36.0794C899.888 -24.4416 849.713 -4.97928 799.656 14.2983C696.449 54.041 596.272 88.4663 489.128 63.1191C362.146 33.0745 241.243 -39.3649 111.57 -46.3186" stroke="#1E1E1E" stroke-miterlimit="10"/>
<path d="M1414.23 -40.6578C1315.4 -40.8162 1217.66 -23.9136 1119.06 -18.3322C1067.65 -15.4162 1016.53 -17.844 965.426 -7.61808C913.529 2.76623 862.539 20.566 811.64 38.181C704.634 75.232 602.021 105.659 491.857 80.5232C368.738 52.4446 250.371 -10.8376 124.836 -16.419" stroke="#1E1E1E" stroke-miterlimit="10"/>
<path d="M1414.25 -14.6379C1320.01 -14.4664 1227.29 4.38895 1133.38 11.0655C1082.22 14.7073 1031.16 12.0815 980.205 20.9088C927.631 30.0132 875.799 46.0845 824.067 61.9842C718.04 94.5886 614.622 121.875 506.068 100.315C382.831 75.8388 263.75 17.9004 138.59 13.5989" stroke="#1E1E1E" stroke-miterlimit="10"/>
<path d="M1414.25 11.396C1323.13 11.8974 1234.09 33.3917 1143.4 40.86C1092.2 45.0691 1041.01 42.5093 989.941 50.3998C938.474 58.3563 887.566 72.1316 836.713 85.7751C731.428 114.025 627.735 137.974 520.5 119.857C397.189 99.0359 277.394 46.6921 152.582 43.7365" stroke="#1E1E1E" stroke-miterlimit="10"/>
<path d="M1414.26 37.429C1326.95 38.247 1242.46 62.1164 1155.72 70.4951C1105.98 75.298 1056.14 72.6063 1006.44 78.8342C953.81 85.4316 901.621 97.5445 849.486 109.512C741.894 134.226 635.683 154.374 526.654 137.947C406.199 119.804 288.372 75.43 166.719 73.873" stroke="#1E1E1E" stroke-miterlimit="10"/>
<path d="M1414.27 63.4492C1331.38 64.5444 1252.27 90.3006 1170.14 99.8932C1118.86 105.884 1067.38 102.677 1016.06 108.1C964.56 113.537 913.35 123.446 862.186 133.276C755.335 153.807 649.042 170.406 541.166 157.396C420.63 142.855 302.162 104.221 180.773 104.01" stroke="#1E1E1E" stroke-miterlimit="10"/>
<path d="M1414.28 89.4836C1367.58 90.2885 1321.75 95.6852 1275.87 108.075C1244.08 116.665 1212.45 125.558 1180.19 129.715C1132.4 135.877 1084.42 132.736 1036.56 136.272C982.434 140.27 928.533 148.728 874.677 157.081C768.44 173.561 662.413 186.584 555.498 176.794C434.879 165.75 315.788 133 194.602 134.069" stroke="#1E1E1E" stroke-miterlimit="10"/>
<path d="M1414.28 115.502C1369.86 116.426 1326.46 121.717 1283.04 135.281C1252.74 144.742 1222.83 154.665 1191.91 159.177C1143.68 166.223 1095.23 162.634 1046.87 165.234C993.404 168.097 940.08 174.562 886.773 180.935C778.293 193.919 669.794 203.419 560.92 195.634C443.075 187.203 326.2 161.803 207.988 164.007" stroke="#1E1E1E" stroke-miterlimit="10"/>
<path d="M1414.29 141.536C1372.32 142.552 1331.24 147.381 1290.47 162.067C1262.12 172.293 1234.26 183.218 1205.15 188.219C1157.23 196.452 1109 192.336 1060.88 193.84C1006.65 195.529 952.489 200.252 898.35 204.91C790.483 214.186 682.506 220.216 574.438 215.426C456.427 210.188 339.012 190.554 220.801 193.787" stroke="#1E1E1E" stroke-miterlimit="10"/>
<path d="M1414.3 167.557C1373.58 168.665 1333.79 173.336 1294.6 189.777C1267.85 200.992 1241.7 212.604 1213.94 217.684C1165.65 226.524 1116.84 221.787 1068.32 222.46C1015.26 223.199 962.252 226.115 909.247 228.978C801.984 234.784 694.658 237.449 587.331 235.378C469.101 233.095 351.164 219.214 232.852 223.305" stroke="#1E1E1E" stroke-miterlimit="10"/>
<path d="M1414.3 193.589C1374.74 194.75 1336.06 199.131 1298.4 217.405C1273.1 229.69 1248.69 241.869 1222.04 246.975C1175.17 255.947 1127.77 251.079 1080.67 250.828C1026.87 250.551 973.072 251.897 919.28 253.216C812.658 255.829 706.064 255.314 599.451 255.631C480.928 255.987 362.488 247.846 243.965 252.57" stroke="#1E1E1E" stroke-miterlimit="10"/>
<path d="M1414.3 219.61C1375.75 220.784 1338.04 224.848 1301.83 244.931C1278.94 257.624 1257.26 269.948 1232.8 275.266C1186.2 285.399 1138.88 280.082 1091.99 279.079C1037.43 277.918 982.856 277.786 928.296 277.627C703.563 276.994 478.647 271.835 253.941 281.52" stroke="#1E1E1E" stroke-miterlimit="10"/>
<path d="M1414.3 245.63C1376.62 246.792 1339.64 250.367 1304.79 272.323C1284.15 285.334 1264.99 297.71 1242.53 303.226C1194.31 315.088 1144.58 308.636 1095.98 306.973C1042.71 305.152 989.432 303.701 936.153 302.249C827.05 299.267 718.148 293.805 609.064 297.842C493.589 302.104 378.097 305.047 262.641 310.087" stroke="#1E1E1E" stroke-miterlimit="10"/>
<path d="M1414.3 271.663C1377.65 272.758 1341.04 275.502 1307.7 299.213C1288.33 312.976 1270.81 325.603 1249.25 331.237C1201.34 343.746 1151.44 336.977 1103.12 334.8C1049.63 332.385 996.152 329.759 942.672 327.134C833.358 321.776 724.32 314.335 614.979 319.89C499.925 325.735 384.927 333.493 269.855 338.23" stroke="#1E1E1E" stroke-miterlimit="10"/>
<path d="M1414.29 297.683C1378.25 298.686 1341.59 300.639 1309.41 326.25C1290.87 341.002 1274.22 353.735 1253.01 359.263C1208.23 370.954 1161.51 365.082 1116.36 362.76C1060.12 359.87 1003.91 356.044 947.706 352.244C839.253 344.92 731.011 335.882 622.457 342.453C506.745 349.459 391.234 361.77 275.43 365.887" stroke="#1E1E1E" stroke-miterlimit="10"/>
<path d="M1414.28 323.703C1378.92 324.574 1341.88 325.551 1310.81 352.692C1293.16 368.117 1277.68 380.89 1256.96 386.458C1212.31 398.439 1165.2 392.607 1120.16 390.139C1063.77 387.052 1007.44 382.328 951.099 377.683C842.554 368.711 734.175 358.775 625.447 366.019C509.945 373.712 394.846 390.007 279.18 393.042" stroke="#1E1E1E" stroke-miterlimit="10"/>
<path d="M1414.26 349.724C1379.36 350.41 1341.59 350.424 1311.34 378.858C1294.33 394.851 1279.75 407.597 1259.29 413.152C1214.67 425.251 1167.06 419.657 1122.03 417.189C1065.53 414.115 1009.1 408.718 952.685 403.414C844.104 393.201 735.587 382.975 626.759 390.43C511.349 398.334 396.588 418.087 280.949 419.578" stroke="#1E1E1E" stroke-miterlimit="10"/>
<path d="M1414.26 375.744C1379.26 376.417 1341.64 376.575 1311.26 404.865C1294.14 420.817 1279.41 433.616 1258.89 439.171C1214.45 451.205 1166.61 446.442 1121.73 444.146C1065.22 441.256 1008.83 435.054 952.454 428.985C843.992 417.294 735.484 407.319 626.683 414.708C511.108 422.559 396.485 446.244 280.59 445.492" stroke="#1E1E1E" stroke-miterlimit="10"/>
<path d="M1414.27 401.777C1378.83 402.503 1341.68 403.373 1310.62 430.819C1292.96 446.428 1277.51 459.346 1256.69 464.927C1212.4 476.816 1164.52 472.976 1119.77 470.614C1063.32 467.632 1007.02 460.23 950.78 452.986C842.501 439.039 734.121 428.47 625.366 436.36C509.352 444.779 394.72 473.477 278.266 470.825" stroke="#1E1E1E" stroke-miterlimit="10"/>
<path d="M1414.28 427.797C1378.22 428.576 1341.32 430.199 1309.36 456.681C1290.97 471.908 1274.61 484.931 1253.34 490.525C1209.07 502.19 1161.15 499.142 1116.44 496.437C1060.06 493.032 1003.93 484.1 947.846 475.378C839.768 458.568 731.581 446.481 622.826 455.467C506.18 465.099 391.456 499.511 274.188 495.553" stroke="#1E1E1E" stroke-miterlimit="10"/>
<path d="M1414.29 453.831C1377.7 454.636 1340.86 456.892 1307.98 482.081C1288.98 496.635 1272.1 509.764 1250.58 515.556C1151.17 542.289 1042.67 514.949 943.742 496.358C834.941 475.906 725.976 461.405 616.186 472.594C499.742 484.469 385.814 524.489 268.5 519.792" stroke="#1E1E1E" stroke-miterlimit="10"/>
<path d="M1414.29 479.851C1377.12 480.669 1339.99 483.453 1306.15 507.415C1285.4 522.114 1266.61 535.547 1243.49 541.273C1143.51 566.027 1037.46 538.251 938.587 516.005C829.081 491.37 719.484 473.689 608.541 487.742C492.151 502.48 378.947 548.451 261.34 543.516" stroke="#1E1E1E" stroke-miterlimit="10"/>
<path d="M1414.29 505.871C1376.11 506.703 1338.54 510.186 1303.38 533.079C1281.48 547.343 1261.26 560.775 1237.25 566.488C1136.37 590.516 1031.59 560.947 932.515 534.531C823.266 505.396 714.181 484.047 602.918 500.805C485.448 518.499 371.997 571.595 252.906 566.858" stroke="#1E1E1E" stroke-miterlimit="10"/>
<path d="M1414.29 531.904C1375.28 532.735 1337.13 536.68 1300.8 558.346C1276.89 572.61 1254.43 586.451 1228.56 592.032C1126.94 613.975 1024.58 583.02 925.626 552.052C819.599 518.867 714.176 493.507 605.357 510.792C483.52 530.135 367.13 594.104 243.344 589.855" stroke="#1E1E1E" stroke-miterlimit="10"/>
<path d="M1414.29 557.924C1374.41 558.729 1335.48 563.07 1297.96 583.574C1273.09 597.165 1249.26 610.901 1222.74 616.68C1119.53 639.151 1017.58 604.765 918.033 568.704C811.338 530.056 705.741 499.853 595.338 521.203C473.236 544.808 357.469 615.757 232.812 612.511" stroke="#1E1E1E" stroke-miterlimit="10"/>
<path d="M1414.28 583.945C1373.44 584.723 1333.67 589.473 1294.92 608.79C1268.88 621.761 1243.85 635.325 1216.43 641.263C1111.35 664.024 1010.08 626.287 909.861 584.644C802.47 540.019 696.983 504.776 584.749 530.664C462.336 558.901 347.163 636.856 221.473 634.916" stroke="#1E1E1E" stroke-miterlimit="10"/>
<path d="M1414.27 609.978C1371.31 610.743 1329.95 616.391 1288.95 635.286C1261.42 647.979 1234.79 660.923 1205.97 666.544C1099.76 687.273 1001.22 647.108 901.207 600.016C793.02 549.071 688 508.563 573.688 539.425C450.991 572.557 336.276 657.492 209.469 657.123" stroke="#1E1E1E" stroke-miterlimit="10"/>
<path d="M1414.27 635.998C1369.47 636.723 1326.3 642.951 1283.34 661.371C1254.82 673.59 1226.78 685.927 1197.16 691.429C1089.24 711.472 992.392 667.929 892.233 614.939C786.654 559.085 684.399 512.56 571.131 545.059C444.726 581.332 328.117 677.772 197.016 679.158" stroke="#1E1E1E" stroke-miterlimit="10"/>
<path d="M1414.26 662.018C1368.4 662.704 1323.99 669.116 1279.73 686.507C1250.01 698.184 1220.67 710.31 1190.01 715.931C1139.3 725.234 1087.58 724.561 1037.67 707.856C984.347 690.004 933.531 659.379 883.007 629.585C832.493 599.791 781.668 569.179 728.343 551.313C672.025 532.445 615.771 534.305 559.535 552.738C432.819 594.262 316.603 697.762 184.211 701.087" stroke="#1E1E1E" stroke-miterlimit="10"/>
<path d="M1414.25 688.051C1367.32 688.684 1321.67 695.229 1276.16 711.669C1243.87 723.334 1212 735.605 1178.82 741.107C1129.49 749.288 1079.93 749.261 1031.57 731.831C976.722 712.065 924.999 677.495 873.67 644.099C822.341 610.703 770.619 576.146 715.774 556.367C659.383 536.033 603.989 539.702 547.827 560.417C420.872 607.246 304.959 717.633 171.258 722.99" stroke="#1E1E1E" stroke-miterlimit="10"/>
<path d="M1414.24 714.072C1366.26 714.639 1319.4 721.263 1272.66 736.833C1237.76 748.47 1203.31 760.847 1167.59 766.257C1119.87 773.501 1072.01 773.923 1025.35 756.005C968.968 734.352 916.393 695.731 864.332 658.588C812.289 621.457 759.687 582.823 703.314 561.17C651.134 541.127 599.878 544.241 547.835 563.691C415.782 613.039 297.543 737.228 158.312 744.868" stroke="#1E1E1E" stroke-miterlimit="10"/>
<path d="M1414.24 740.092C1365.23 740.606 1317.24 747.243 1269.32 762.021C1233.18 773.171 1197.4 785.297 1160.56 790.786C1108.99 798.465 1058.43 798.439 1008.51 775.876C954.597 751.505 904.669 711.644 855.125 673.234C805.581 634.824 755.653 594.962 701.742 570.591C645.543 545.178 592.465 548.292 536.266 571.541C404.048 626.234 286.084 757.126 145.535 766.811" stroke="#1E1E1E" stroke-miterlimit="10"/>
<path d="M1414.23 766.126C1364.23 766.587 1315.19 773.211 1266.15 787.264C1228.81 797.965 1191.73 809.827 1153.8 815.369C1102.41 822.876 1052.14 823.945 1002.6 800.485C947.136 774.214 896.338 730.262 846.135 688.184C795.932 646.106 745.134 602.141 689.667 575.883C633.385 549.23 581.095 554.639 524.896 580.079C392.696 639.904 274.796 777.249 133.066 788.873" stroke="#1E1E1E" stroke-miterlimit="10"/>
<path d="M1414.23 792.145C1360.98 792.581 1308.84 800.049 1256.56 814.339C1218.17 824.829 1179.95 835.807 1140.98 840.874C1089.48 847.577 1039.78 847.946 990.512 822.137C935.97 793.57 886.472 747.573 837.505 703.542C788.538 659.498 739.039 613.514 684.497 584.948C629.259 556.025 577.976 559.811 522.619 585.304C386.629 647.913 267.127 797.45 121.086 811.08" stroke="#1E1E1E" stroke-miterlimit="10"/>
<path d="M1414.23 818.165C1319.12 818.851 1229.04 853.488 1135.01 865.561C1083.64 872.145 1034.28 873.781 985.348 847.392C929.167 817.097 878.964 767.035 829.329 719.481C779.693 671.927 729.49 621.866 673.309 591.571C617.842 561.658 567.621 567.9 512.062 595.464C376.128 662.889 256.882 818.337 109.742 833.484" stroke="#1E1E1E" stroke-miterlimit="10"/>
<path d="M1414.22 844.198C1317.53 844.832 1225.31 878.201 1129.61 890.327C1074.56 897.307 1022.49 898.68 970.653 867.223C916.925 834.619 869.112 784.268 821.737 736.146C774.363 688.012 726.54 637.66 672.822 605.069C647.528 589.724 619.003 576.397 591.219 577.479C560.936 578.653 530.268 592.019 502.073 606.956C366.385 678.828 247.322 839.831 99.2031 856.153" stroke="#1E1E1E" stroke-miterlimit="10"/>
<path d="M1414.22 870.219C1314.62 870.813 1219.12 904.05 1120.41 915.715C1067.24 921.995 1016.8 924.08 966.8 893.31C911.425 859.228 862.861 805.023 814.827 753.656C766.794 702.302 718.229 648.085 662.854 614.002C637.789 598.578 609.428 585.436 581.855 587.811C551.325 590.436 521.06 604.053 492.746 619.94C427.035 656.806 366.606 710.984 305.281 760.478C238.123 814.669 167.716 870.153 89.6289 879.112" stroke="#1E1E1E" stroke-miterlimit="10"/>
<path d="M1414.22 896.239C1312.7 896.833 1214.89 929.424 1114.19 940.93C1060.74 947.026 1010.1 949.599 960.078 917.536C904.575 881.962 856.395 825.489 808.764 772.182C761.134 718.875 712.954 662.401 657.45 626.828C632.523 610.849 604.181 597.298 576.552 599.726C545.848 602.418 515.465 616.576 487.132 633.003C420.716 671.492 359.894 727.808 298.11 779.228C230.889 835.187 160.061 893.284 81.1953 902.467" stroke="#1E1E1E" stroke-miterlimit="10"/>
<path d="M1414.22 922.272C1310.28 922.893 1209.75 955.418 1106.55 966.528C1055.12 972.07 1006.14 975.289 958.038 944.638C900.823 908.18 851.837 848.065 803.612 791.855C755.386 735.645 706.4 675.53 649.185 639.073C594.917 604.489 545.758 612.195 491.17 642.807C420.031 682.695 355.684 744.802 290.303 800.603C223.594 857.539 152.922 917.219 74.0469 926.231" stroke="#1E1E1E" stroke-miterlimit="10"/>
<path d="M1414.22 948.291C1309.67 948.964 1208.27 980.46 1104.44 991.729C1049.71 997.666 998.007 1000.95 947.328 965.788C892.566 927.787 845.777 868.568 799.51 812.807C753.235 757.059 706.446 697.828 651.693 659.827C594.67 620.256 542.206 627.645 484.579 661.265C413.394 702.802 349.166 766.309 283.739 823.323C217.607 880.958 147.127 941.931 68.3711 950.416" stroke="#1E1E1E" stroke-miterlimit="10"/>
<path d="M1414.23 974.325C1308.65 975.09 1205.98 1006.11 1101.08 1017.33C1046.48 1023.16 994.471 1027.12 944.003 991.584C889.076 952.91 842.553 892.174 796.57 835.225C750.587 778.263 704.064 717.528 649.137 678.867C592.471 638.966 539.293 646.566 482.023 680.411C410.325 722.779 345.869 787.843 280.185 846.124C214.2 904.67 143.436 967.503 64.2773 975.196" stroke="#1E1E1E" stroke-miterlimit="10"/>
<path d="M1414.24 1000.35C1308 1001.26 1204.48 1031.86 1098.89 1043.06C1044.59 1048.82 992.257 1053.52 942.054 1018C886.953 979.01 840.632 917.048 794.905 859.175C749.188 801.316 702.866 739.34 647.756 700.349C591.575 660.607 537.454 668.286 480.715 702.012C408.596 744.869 343.993 811.212 278.127 870.443C212.379 929.583 141.359 994 61.9531 1000.47" stroke="#1E1E1E" stroke-miterlimit="10"/>
<path d="M1414.25 1026.38C1307.82 1027.45 1203.99 1057.74 1098.18 1068.97C1044.18 1074.7 991.673 1079.92 941.699 1044.64C886.451 1005.64 840.194 943.067 794.568 884.799C748.942 826.544 702.685 763.974 647.438 724.957C591.669 685.584 536.714 693.145 480.405 726.594C408.113 769.529 343.564 836.638 277.744 896.397C212.198 955.893 141.068 1021.14 61.543 1026.42" stroke="#1E1E1E" stroke-miterlimit="10"/>
<path d="M1414.25 1052.4C1307.96 1053.55 1204.26 1083.67 1098.59 1094.89C1044.53 1100.63 992.23 1105.72 942.201 1070.41C886.89 1031.37 840.422 969.061 794.567 911.004C748.712 852.947 702.244 790.641 646.933 751.598C591.137 712.211 536.127 719.403 479.736 752.957C407.745 795.8 343.664 863.16 278.301 923.091C212.893 983.048 142 1048.16 62.375 1053.19" stroke="#1E1E1E" stroke-miterlimit="10"/>
<path d="M1414.25 1078.42C1308.19 1079.61 1204.71 1109.55 1099.26 1120.72C1045.16 1126.45 993.027 1131.4 942.934 1096.18C887.485 1057.2 840.724 995.212 794.558 937.406C748.392 879.6 701.622 817.61 646.183 778.633C590.359 739.379 535.35 746.147 478.949 779.887C407.407 822.69 343.976 890.353 279.226 950.482C214.147 1010.91 143.685 1075.95 64.1328 1080.81" stroke="#1E1E1E" stroke-miterlimit="10"/>
<path d="M1414.24 1104.45C1308.49 1105.68 1205.32 1135.39 1100.19 1146.49C1046.04 1152.2 994.036 1156.99 943.86 1121.96C888.219 1083.12 841.083 1021.51 794.532 964.007C747.982 906.504 700.846 844.898 645.205 806.052C589.363 767.062 534.399 773.329 478.035 807.345C407.088 850.163 344.463 918.169 280.473 978.535C215.906 1039.44 146.049 1104.49 66.707 1109.22" stroke="#1E1E1E" stroke-miterlimit="10"/>
<path d="M1414.24 1130.47C1308.11 1131.71 1204.55 1161.64 1099.02 1172.43C1048.16 1177.63 998.722 1182.66 951.137 1151.87C892.558 1113.97 843.087 1049.88 794.514 990.753C745.94 931.641 696.47 867.54 637.89 829.632C584.977 795.391 532.925 801.883 479.939 833.484C409.111 875.734 347.016 944.585 283.686 1005.54C219.33 1067.51 149.719 1133.55 70.0664 1138.28" stroke="#1E1E1E" stroke-miterlimit="10"/>
<path d="M1414.24 1156.51C1308.57 1157.75 1205.47 1187.41 1100.39 1198.08C1049.5 1203.26 1000.13 1208.12 952.456 1177.63C893.575 1139.97 843.582 1076.39 794.487 1017.66C745.392 958.941 695.399 895.342 636.518 857.684C583.623 823.852 531.681 829.83 478.832 861.814C408.819 904.182 347.804 973.415 285.517 1034.68C222.013 1097.14 153.299 1163.3 74.1133 1168.03" stroke="#1E1E1E" stroke-miterlimit="10"/>
<path d="M1414.24 1182.53C1309.11 1183.74 1206.5 1213.11 1101.94 1223.67C1051.02 1228.81 1001.7 1233.5 953.913 1203.39C894.674 1166.05 844.114 1102.99 794.442 1044.69C744.77 986.398 694.21 923.34 634.971 885.999C582.095 852.669 530.299 858.066 477.633 890.498C408.545 933.025 348.711 1002.67 287.578 1064.25C225.053 1127.21 157.374 1193.56 78.7461 1198.29" stroke="#1E1E1E" stroke-miterlimit="10"/>
<path d="M1414.24 1208.55C1310.43 1209.73 1209.14 1238.33 1105.91 1248.98C1052.75 1254.45 1001.51 1258.87 951.723 1226.74C893.693 1189.28 843.728 1128.51 794.404 1071.85C745.079 1015.19 695.114 954.415 637.084 916.955C579.841 880.01 524.201 887.122 468.029 924.938C404.057 968.006 348.426 1033.57 291.421 1092.58C229.546 1156.64 162.535 1224.17 83.8984 1229.03" stroke="#1E1E1E" stroke-miterlimit="10"/>
<path d="M1414.24 1234.58C1311.05 1235.71 1210.36 1264 1107.74 1274.49C1054.56 1279.93 1003.32 1284.15 953.408 1252.52C894.947 1215.46 844.332 1155.27 794.367 1099.09C744.402 1042.92 693.787 982.73 635.327 945.666C578.139 909.42 522.718 915.793 466.848 954.242C403.92 997.548 349.589 1063.52 293.847 1122.87C233.181 1187.46 167.424 1255.24 89.4922 1260.19" stroke="#1E1E1E" stroke-miterlimit="10"/>
<rect x="1384" y="1354.13" width="1384" height="1354.13" transform="rotate(-180 1384 1354.13)" fill="url(#paint0_linear_5_973)"/>
<defs>
<linearGradient id="paint0_linear_5_973" x1="1384" y1="2114.59" x2="2768" y2="2114.59" gradientUnits="userSpaceOnUse">
<stop stop-color="#0F0F0F" stop-opacity="0.08"/>
<stop offset="0.377694" stop-color="#0F0F0F" stop-opacity="0.83"/>
<stop offset="1" stop-color="#0F0F0F"/>
</linearGradient>
</defs>
</svg>
